%TF.GenerationSoftware,KiCad,Pcbnew,9.0.5*%
%TF.CreationDate,2025-12-02T20:32:22-06:00*%
%TF.ProjectId,lorapuck,6c6f7261-7075-4636-9b2e-6b696361645f,rev?*%
%TF.SameCoordinates,Original*%
%TF.FileFunction,Copper,L2,Inr*%
%TF.FilePolarity,Positive*%
%FSLAX46Y46*%
G04 Gerber Fmt 4.6, Leading zero omitted, Abs format (unit mm)*
G04 Created by KiCad (PCBNEW 9.0.5) date 2025-12-02 20:32:22*
%MOMM*%
%LPD*%
G01*
G04 APERTURE LIST*
%TA.AperFunction,ComponentPad*%
%ADD10R,1.700000X1.700000*%
%TD*%
%TA.AperFunction,HeatsinkPad*%
%ADD11O,1.000000X2.100000*%
%TD*%
%TA.AperFunction,HeatsinkPad*%
%ADD12O,1.000000X1.800000*%
%TD*%
%TA.AperFunction,ViaPad*%
%ADD13C,0.600000*%
%TD*%
G04 APERTURE END LIST*
D10*
%TO.N,Net-(AE1-A)*%
%TO.C,AE1*%
X100000000Y-118800000D03*
%TD*%
D11*
%TO.N,Net-(J1-SHIELD)*%
%TO.C,J1*%
X97430000Y-86500000D03*
D12*
X97430000Y-82320000D03*
D11*
X88790000Y-86500000D03*
D12*
X88790000Y-82320000D03*
%TD*%
D13*
%TO.N,+3V3*%
X89500000Y-111500000D03*
X84000000Y-110000000D03*
X104000000Y-103000000D03*
X91000000Y-105000000D03*
X101500000Y-110000000D03*
X89500000Y-96000000D03*
X83000000Y-111400000D03*
X93500000Y-105500000D03*
X98000000Y-96000000D03*
X94000000Y-114500000D03*
X101500000Y-93000000D03*
X88500000Y-99500000D03*
X92000000Y-102500000D03*
X91000000Y-108000000D03*
%TO.N,Earth*%
X101500000Y-113500000D03*
X88500000Y-91500000D03*
X95000000Y-91250000D03*
X83000000Y-109000000D03*
X102500000Y-105500000D03*
X100000000Y-90000000D03*
X90668478Y-98706569D03*
X104000000Y-102000000D03*
X99000000Y-88500000D03*
X98000000Y-105500000D03*
X88000000Y-109000000D03*
X89750000Y-90250000D03*
X94000000Y-99500000D03*
X90000000Y-89000000D03*
X80600000Y-112800000D03*
X101000000Y-107000000D03*
X102000000Y-106500000D03*
X96500000Y-97500000D03*
X97000000Y-111000000D03*
X89000000Y-114500000D03*
X106000000Y-97000000D03*
X87000000Y-107000000D03*
X80500000Y-101500000D03*
X92000000Y-121500000D03*
X85000000Y-118000000D03*
X79600000Y-113800000D03*
X101500000Y-116000000D03*
X88500000Y-94500000D03*
X87000000Y-108500000D03*
%TO.N,+1V1*%
X89500000Y-109000000D03*
X89000000Y-104500000D03*
%TO.N,/SX_DIO2*%
X97500000Y-98500000D03*
X98000000Y-107500000D03*
%TO.N,/SX_DIO1*%
X96000000Y-99000000D03*
X92000000Y-110500000D03*
%TO.N,/SPI_MISO*%
X95000000Y-109000000D03*
X96000000Y-101500000D03*
%TO.N,/SPI_MOSI*%
X96500000Y-102500000D03*
X95000000Y-110000000D03*
%TO.N,/SX_NSS*%
X97000000Y-107500000D03*
X97500000Y-103500000D03*
%TO.N,/SPI_CLK*%
X96500000Y-103500000D03*
X95500000Y-111000000D03*
%TO.N,/SX_BUSY*%
X94516641Y-106590000D03*
X96006094Y-99852591D03*
%TO.N,/QSPI_SCLK*%
X87500000Y-104500000D03*
X85500000Y-99500000D03*
%TO.N,/QSPI_SD1*%
X86500000Y-104500000D03*
X83000000Y-98000000D03*
%TO.N,/QSPI_SD2*%
X85000000Y-98000000D03*
X86500000Y-102000000D03*
%TO.N,Net-(U6-SCL)*%
X81600000Y-108000000D03*
X79482419Y-106210646D03*
%TO.N,/QSPI_SD3*%
X89500000Y-99000000D03*
X88000000Y-102000000D03*
%TD*%
%TA.AperFunction,Conductor*%
%TO.N,Earth*%
G36*
X106004418Y-80500816D02*
G01*
X106204561Y-80515130D01*
X106222063Y-80517647D01*
X106413797Y-80559355D01*
X106430755Y-80564334D01*
X106614609Y-80632909D01*
X106630701Y-80640259D01*
X106802904Y-80734288D01*
X106817784Y-80743849D01*
X106974867Y-80861441D01*
X106988237Y-80873027D01*
X107126972Y-81011762D01*
X107138558Y-81025132D01*
X107256146Y-81182210D01*
X107265711Y-81197095D01*
X107359740Y-81369298D01*
X107367090Y-81385390D01*
X107435662Y-81569236D01*
X107440646Y-81586212D01*
X107482351Y-81777931D01*
X107484869Y-81795442D01*
X107499184Y-81995580D01*
X107499500Y-82004427D01*
X107499500Y-120995572D01*
X107499184Y-121004419D01*
X107484869Y-121204557D01*
X107482351Y-121222068D01*
X107440646Y-121413787D01*
X107435662Y-121430763D01*
X107367090Y-121614609D01*
X107359740Y-121630701D01*
X107265711Y-121802904D01*
X107256146Y-121817789D01*
X107138558Y-121974867D01*
X107126972Y-121988237D01*
X106988237Y-122126972D01*
X106974867Y-122138558D01*
X106817789Y-122256146D01*
X106802904Y-122265711D01*
X106630701Y-122359740D01*
X106614609Y-122367090D01*
X106430763Y-122435662D01*
X106413787Y-122440646D01*
X106222068Y-122482351D01*
X106204557Y-122484869D01*
X106023779Y-122497799D01*
X106004417Y-122499184D01*
X105995572Y-122499500D01*
X80004428Y-122499500D01*
X79995582Y-122499184D01*
X79973622Y-122497613D01*
X79795442Y-122484869D01*
X79777931Y-122482351D01*
X79586212Y-122440646D01*
X79569236Y-122435662D01*
X79385390Y-122367090D01*
X79369298Y-122359740D01*
X79197095Y-122265711D01*
X79182210Y-122256146D01*
X79025132Y-122138558D01*
X79011762Y-122126972D01*
X78873027Y-121988237D01*
X78861441Y-121974867D01*
X78743849Y-121817784D01*
X78734288Y-121802904D01*
X78640259Y-121630701D01*
X78632909Y-121614609D01*
X78572091Y-121451551D01*
X78564334Y-121430755D01*
X78559355Y-121413797D01*
X78517647Y-121222063D01*
X78515130Y-121204556D01*
X78500816Y-121004418D01*
X78500500Y-120995572D01*
X78500500Y-117902135D01*
X98649500Y-117902135D01*
X98649500Y-119697870D01*
X98649501Y-119697876D01*
X98655908Y-119757483D01*
X98706202Y-119892328D01*
X98706206Y-119892335D01*
X98792452Y-120007544D01*
X98792455Y-120007547D01*
X98907664Y-120093793D01*
X98907671Y-120093797D01*
X99042517Y-120144091D01*
X99042516Y-120144091D01*
X99049444Y-120144835D01*
X99102127Y-120150500D01*
X100897872Y-120150499D01*
X100957483Y-120144091D01*
X101092331Y-120093796D01*
X101207546Y-120007546D01*
X101293796Y-119892331D01*
X101344091Y-119757483D01*
X101350500Y-119697873D01*
X101350499Y-117902128D01*
X101344091Y-117842517D01*
X101293796Y-117707669D01*
X101293795Y-117707668D01*
X101293793Y-117707664D01*
X101207547Y-117592455D01*
X101207544Y-117592452D01*
X101092335Y-117506206D01*
X101092328Y-117506202D01*
X100957482Y-117455908D01*
X100957483Y-117455908D01*
X100897883Y-117449501D01*
X100897881Y-117449500D01*
X100897873Y-117449500D01*
X100897864Y-117449500D01*
X99102129Y-117449500D01*
X99102123Y-117449501D01*
X99042516Y-117455908D01*
X98907671Y-117506202D01*
X98907664Y-117506206D01*
X98792455Y-117592452D01*
X98792452Y-117592455D01*
X98706206Y-117707664D01*
X98706202Y-117707671D01*
X98655908Y-117842517D01*
X98649501Y-117902116D01*
X98649501Y-117902123D01*
X98649500Y-117902135D01*
X78500500Y-117902135D01*
X78500500Y-114421153D01*
X93199500Y-114421153D01*
X93199500Y-114578846D01*
X93230261Y-114733489D01*
X93230264Y-114733501D01*
X93290602Y-114879172D01*
X93290609Y-114879185D01*
X93378210Y-115010288D01*
X93378213Y-115010292D01*
X93489707Y-115121786D01*
X93489711Y-115121789D01*
X93620814Y-115209390D01*
X93620827Y-115209397D01*
X93766498Y-115269735D01*
X93766503Y-115269737D01*
X93921153Y-115300499D01*
X93921156Y-115300500D01*
X93921158Y-115300500D01*
X94078844Y-115300500D01*
X94078845Y-115300499D01*
X94233497Y-115269737D01*
X94379179Y-115209394D01*
X94510289Y-115121789D01*
X94621789Y-115010289D01*
X94709394Y-114879179D01*
X94769737Y-114733497D01*
X94800500Y-114578842D01*
X94800500Y-114421158D01*
X94800500Y-114421155D01*
X94800499Y-114421153D01*
X94769738Y-114266510D01*
X94769737Y-114266503D01*
X94769735Y-114266498D01*
X94709397Y-114120827D01*
X94709390Y-114120814D01*
X94621789Y-113989711D01*
X94621786Y-113989707D01*
X94510292Y-113878213D01*
X94510288Y-113878210D01*
X94379185Y-113790609D01*
X94379172Y-113790602D01*
X94233501Y-113730264D01*
X94233489Y-113730261D01*
X94078845Y-113699500D01*
X94078842Y-113699500D01*
X93921158Y-113699500D01*
X93921155Y-113699500D01*
X93766510Y-113730261D01*
X93766498Y-113730264D01*
X93620827Y-113790602D01*
X93620814Y-113790609D01*
X93489711Y-113878210D01*
X93489707Y-113878213D01*
X93378213Y-113989707D01*
X93378210Y-113989711D01*
X93290609Y-114120814D01*
X93290602Y-114120827D01*
X93230264Y-114266498D01*
X93230261Y-114266510D01*
X93199500Y-114421153D01*
X78500500Y-114421153D01*
X78500500Y-111321153D01*
X82199500Y-111321153D01*
X82199500Y-111478846D01*
X82230261Y-111633489D01*
X82230264Y-111633501D01*
X82290602Y-111779172D01*
X82290609Y-111779185D01*
X82378210Y-111910288D01*
X82378213Y-111910292D01*
X82489707Y-112021786D01*
X82489711Y-112021789D01*
X82620814Y-112109390D01*
X82620827Y-112109397D01*
X82766498Y-112169735D01*
X82766503Y-112169737D01*
X82921153Y-112200499D01*
X82921156Y-112200500D01*
X82921158Y-112200500D01*
X83078844Y-112200500D01*
X83078845Y-112200499D01*
X83233497Y-112169737D01*
X83379179Y-112109394D01*
X83510289Y-112021789D01*
X83621789Y-111910289D01*
X83709394Y-111779179D01*
X83769737Y-111633497D01*
X83800500Y-111478842D01*
X83800500Y-111421153D01*
X88699500Y-111421153D01*
X88699500Y-111578846D01*
X88730261Y-111733489D01*
X88730264Y-111733501D01*
X88790602Y-111879172D01*
X88790609Y-111879185D01*
X88878210Y-112010288D01*
X88878213Y-112010292D01*
X88989707Y-112121786D01*
X88989711Y-112121789D01*
X89120814Y-112209390D01*
X89120827Y-112209397D01*
X89266498Y-112269735D01*
X89266503Y-112269737D01*
X89421153Y-112300499D01*
X89421156Y-112300500D01*
X89421158Y-112300500D01*
X89578844Y-112300500D01*
X89578845Y-112300499D01*
X89733497Y-112269737D01*
X89879179Y-112209394D01*
X90010289Y-112121789D01*
X90121789Y-112010289D01*
X90209394Y-111879179D01*
X90269737Y-111733497D01*
X90300500Y-111578842D01*
X90300500Y-111421158D01*
X90300500Y-111421155D01*
X90300499Y-111421153D01*
X90292148Y-111379172D01*
X90269737Y-111266503D01*
X90209794Y-111121786D01*
X90209397Y-111120827D01*
X90209390Y-111120814D01*
X90121789Y-110989711D01*
X90121786Y-110989707D01*
X90010292Y-110878213D01*
X90010288Y-110878210D01*
X89879185Y-110790609D01*
X89879172Y-110790602D01*
X89733501Y-110730264D01*
X89733489Y-110730261D01*
X89578845Y-110699500D01*
X89578842Y-110699500D01*
X89421158Y-110699500D01*
X89421155Y-110699500D01*
X89266510Y-110730261D01*
X89266498Y-110730264D01*
X89120827Y-110790602D01*
X89120814Y-110790609D01*
X88989711Y-110878210D01*
X88989707Y-110878213D01*
X88878213Y-110989707D01*
X88878210Y-110989711D01*
X88790609Y-111120814D01*
X88790602Y-111120827D01*
X88730264Y-111266498D01*
X88730261Y-111266510D01*
X88699500Y-111421153D01*
X83800500Y-111421153D01*
X83800500Y-111321158D01*
X83800500Y-111321155D01*
X83800499Y-111321153D01*
X83778269Y-111209397D01*
X83769737Y-111166503D01*
X83733427Y-111078842D01*
X83709397Y-111020827D01*
X83709387Y-111020809D01*
X83673473Y-110967059D01*
X83652595Y-110900382D01*
X83671080Y-110833002D01*
X83723059Y-110786312D01*
X83792029Y-110775136D01*
X83800751Y-110776549D01*
X83849831Y-110786312D01*
X83921156Y-110800500D01*
X83921158Y-110800500D01*
X84078844Y-110800500D01*
X84078845Y-110800499D01*
X84233497Y-110769737D01*
X84379179Y-110709394D01*
X84510289Y-110621789D01*
X84621789Y-110510289D01*
X84681348Y-110421153D01*
X91199500Y-110421153D01*
X91199500Y-110578846D01*
X91230261Y-110733489D01*
X91230264Y-110733501D01*
X91290602Y-110879172D01*
X91290609Y-110879185D01*
X91378210Y-111010288D01*
X91378213Y-111010292D01*
X91489707Y-111121786D01*
X91489711Y-111121789D01*
X91620814Y-111209390D01*
X91620827Y-111209397D01*
X91758683Y-111266498D01*
X91766503Y-111269737D01*
X91921153Y-111300499D01*
X91921156Y-111300500D01*
X91921158Y-111300500D01*
X92078844Y-111300500D01*
X92078845Y-111300499D01*
X92233497Y-111269737D01*
X92379179Y-111209394D01*
X92510289Y-111121789D01*
X92621789Y-111010289D01*
X92709394Y-110879179D01*
X92769737Y-110733497D01*
X92800500Y-110578842D01*
X92800500Y-110421158D01*
X92800500Y-110421155D01*
X92800499Y-110421153D01*
X92792151Y-110379185D01*
X92769737Y-110266503D01*
X92756062Y-110233489D01*
X92709397Y-110120827D01*
X92709390Y-110120814D01*
X92621789Y-109989711D01*
X92621786Y-109989707D01*
X92510292Y-109878213D01*
X92510288Y-109878210D01*
X92379185Y-109790609D01*
X92379172Y-109790602D01*
X92233501Y-109730264D01*
X92233489Y-109730261D01*
X92078845Y-109699500D01*
X92078842Y-109699500D01*
X91921158Y-109699500D01*
X91921155Y-109699500D01*
X91766510Y-109730261D01*
X91766498Y-109730264D01*
X91620827Y-109790602D01*
X91620814Y-109790609D01*
X91489711Y-109878210D01*
X91489707Y-109878213D01*
X91378213Y-109989707D01*
X91378210Y-109989711D01*
X91290609Y-110120814D01*
X91290602Y-110120827D01*
X91230264Y-110266498D01*
X91230261Y-110266510D01*
X91199500Y-110421153D01*
X84681348Y-110421153D01*
X84709394Y-110379179D01*
X84769737Y-110233497D01*
X84800500Y-110078842D01*
X84800500Y-109921158D01*
X84800500Y-109921155D01*
X84800499Y-109921153D01*
X84774531Y-109790606D01*
X84769737Y-109766503D01*
X84769735Y-109766498D01*
X84709397Y-109620827D01*
X84709390Y-109620814D01*
X84621789Y-109489711D01*
X84621786Y-109489707D01*
X84510292Y-109378213D01*
X84510288Y-109378210D01*
X84379185Y-109290609D01*
X84379172Y-109290602D01*
X84233501Y-109230264D01*
X84233489Y-109230261D01*
X84078845Y-109199500D01*
X84078842Y-109199500D01*
X83921158Y-109199500D01*
X83921155Y-109199500D01*
X83766510Y-109230261D01*
X83766498Y-109230264D01*
X83620827Y-109290602D01*
X83620814Y-109290609D01*
X83489711Y-109378210D01*
X83489707Y-109378213D01*
X83378213Y-109489707D01*
X83378210Y-109489711D01*
X83290609Y-109620814D01*
X83290602Y-109620827D01*
X83230264Y-109766498D01*
X83230261Y-109766510D01*
X83199500Y-109921153D01*
X83199500Y-110078846D01*
X83230261Y-110233489D01*
X83230264Y-110233501D01*
X83290602Y-110379172D01*
X83290608Y-110379183D01*
X83326527Y-110432940D01*
X83347404Y-110499618D01*
X83328919Y-110566998D01*
X83276940Y-110613687D01*
X83207970Y-110624863D01*
X83199232Y-110623447D01*
X83078844Y-110599500D01*
X83078842Y-110599500D01*
X82921158Y-110599500D01*
X82921155Y-110599500D01*
X82766510Y-110630261D01*
X82766498Y-110630264D01*
X82620827Y-110690602D01*
X82620814Y-110690609D01*
X82489711Y-110778210D01*
X82489707Y-110778213D01*
X82378213Y-110889707D01*
X82378210Y-110889711D01*
X82290609Y-111020814D01*
X82290602Y-111020827D01*
X82230264Y-111166498D01*
X82230261Y-111166510D01*
X82199500Y-111321153D01*
X78500500Y-111321153D01*
X78500500Y-108921153D01*
X88699500Y-108921153D01*
X88699500Y-109078846D01*
X88730261Y-109233489D01*
X88730264Y-109233501D01*
X88790602Y-109379172D01*
X88790609Y-109379185D01*
X88878210Y-109510288D01*
X88878213Y-109510292D01*
X88989707Y-109621786D01*
X88989711Y-109621789D01*
X89120814Y-109709390D01*
X89120827Y-109709397D01*
X89258683Y-109766498D01*
X89266503Y-109769737D01*
X89421153Y-109800499D01*
X89421156Y-109800500D01*
X89421158Y-109800500D01*
X89578844Y-109800500D01*
X89578845Y-109800499D01*
X89733497Y-109769737D01*
X89879179Y-109709394D01*
X90010289Y-109621789D01*
X90121789Y-109510289D01*
X90209394Y-109379179D01*
X90269737Y-109233497D01*
X90300500Y-109078842D01*
X90300500Y-108921158D01*
X90300500Y-108921155D01*
X90300499Y-108921153D01*
X94199500Y-108921153D01*
X94199500Y-109078846D01*
X94230261Y-109233489D01*
X94230264Y-109233501D01*
X94290602Y-109379172D01*
X94290609Y-109379185D01*
X94325304Y-109431109D01*
X94346182Y-109497786D01*
X94327698Y-109565167D01*
X94325304Y-109568891D01*
X94290609Y-109620814D01*
X94290602Y-109620827D01*
X94230264Y-109766498D01*
X94230261Y-109766510D01*
X94199500Y-109921153D01*
X94199500Y-110078846D01*
X94230261Y-110233489D01*
X94230264Y-110233501D01*
X94290602Y-110379172D01*
X94290609Y-110379185D01*
X94378210Y-110510288D01*
X94378213Y-110510292D01*
X94489707Y-110621786D01*
X94489711Y-110621789D01*
X94620817Y-110709392D01*
X94620819Y-110709393D01*
X94620821Y-110709394D01*
X94638409Y-110716679D01*
X94692812Y-110760520D01*
X94714877Y-110826814D01*
X94712573Y-110855431D01*
X94699500Y-110921153D01*
X94699500Y-111078846D01*
X94730261Y-111233489D01*
X94730264Y-111233501D01*
X94790602Y-111379172D01*
X94790609Y-111379185D01*
X94878210Y-111510288D01*
X94878213Y-111510292D01*
X94989707Y-111621786D01*
X94989711Y-111621789D01*
X95120814Y-111709390D01*
X95120827Y-111709397D01*
X95266498Y-111769735D01*
X95266503Y-111769737D01*
X95421153Y-111800499D01*
X95421156Y-111800500D01*
X95421158Y-111800500D01*
X95578844Y-111800500D01*
X95578845Y-111800499D01*
X95733497Y-111769737D01*
X95879179Y-111709394D01*
X96010289Y-111621789D01*
X96121789Y-111510289D01*
X96209394Y-111379179D01*
X96269737Y-111233497D01*
X96300500Y-111078842D01*
X96300500Y-110921158D01*
X96300500Y-110921155D01*
X96300499Y-110921153D01*
X96287426Y-110855431D01*
X96269737Y-110766503D01*
X96256062Y-110733489D01*
X96209397Y-110620827D01*
X96209390Y-110620814D01*
X96121789Y-110489711D01*
X96121786Y-110489707D01*
X96010292Y-110378213D01*
X96010288Y-110378210D01*
X95879185Y-110290609D01*
X95879179Y-110290606D01*
X95861589Y-110283320D01*
X95807186Y-110239478D01*
X95785122Y-110173184D01*
X95787425Y-110144571D01*
X95800500Y-110078842D01*
X95800500Y-109921158D01*
X95800500Y-109921155D01*
X95800499Y-109921153D01*
X100699500Y-109921153D01*
X100699500Y-110078846D01*
X100730261Y-110233489D01*
X100730264Y-110233501D01*
X100790602Y-110379172D01*
X100790609Y-110379185D01*
X100878210Y-110510288D01*
X100878213Y-110510292D01*
X100989707Y-110621786D01*
X100989711Y-110621789D01*
X101120814Y-110709390D01*
X101120827Y-110709397D01*
X101234425Y-110756450D01*
X101266503Y-110769737D01*
X101421153Y-110800499D01*
X101421156Y-110800500D01*
X101421158Y-110800500D01*
X101578844Y-110800500D01*
X101578845Y-110800499D01*
X101733497Y-110769737D01*
X101879179Y-110709394D01*
X102010289Y-110621789D01*
X102121789Y-110510289D01*
X102209394Y-110379179D01*
X102269737Y-110233497D01*
X102300500Y-110078842D01*
X102300500Y-109921158D01*
X102300500Y-109921155D01*
X102300499Y-109921153D01*
X102274531Y-109790606D01*
X102269737Y-109766503D01*
X102269735Y-109766498D01*
X102209397Y-109620827D01*
X102209390Y-109620814D01*
X102121789Y-109489711D01*
X102121786Y-109489707D01*
X102010292Y-109378213D01*
X102010288Y-109378210D01*
X101879185Y-109290609D01*
X101879172Y-109290602D01*
X101733501Y-109230264D01*
X101733489Y-109230261D01*
X101578845Y-109199500D01*
X101578842Y-109199500D01*
X101421158Y-109199500D01*
X101421155Y-109199500D01*
X101266510Y-109230261D01*
X101266498Y-109230264D01*
X101120827Y-109290602D01*
X101120814Y-109290609D01*
X100989711Y-109378210D01*
X100989707Y-109378213D01*
X100878213Y-109489707D01*
X100878210Y-109489711D01*
X100790609Y-109620814D01*
X100790602Y-109620827D01*
X100730264Y-109766498D01*
X100730261Y-109766510D01*
X100699500Y-109921153D01*
X95800499Y-109921153D01*
X95774531Y-109790606D01*
X95769737Y-109766503D01*
X95769735Y-109766498D01*
X95709396Y-109620825D01*
X95709394Y-109620822D01*
X95709394Y-109620821D01*
X95674694Y-109568889D01*
X95653816Y-109502215D01*
X95672300Y-109434835D01*
X95674676Y-109431136D01*
X95709394Y-109379179D01*
X95769737Y-109233497D01*
X95800500Y-109078842D01*
X95800500Y-108921158D01*
X95800500Y-108921155D01*
X95800499Y-108921153D01*
X95769738Y-108766510D01*
X95769737Y-108766503D01*
X95709794Y-108621786D01*
X95709397Y-108620827D01*
X95709390Y-108620814D01*
X95621789Y-108489711D01*
X95621786Y-108489707D01*
X95510292Y-108378213D01*
X95510288Y-108378210D01*
X95379185Y-108290609D01*
X95379172Y-108290602D01*
X95233501Y-108230264D01*
X95233489Y-108230261D01*
X95078845Y-108199500D01*
X95078842Y-108199500D01*
X94921158Y-108199500D01*
X94921155Y-108199500D01*
X94766510Y-108230261D01*
X94766498Y-108230264D01*
X94620827Y-108290602D01*
X94620814Y-108290609D01*
X94489711Y-108378210D01*
X94489707Y-108378213D01*
X94378213Y-108489707D01*
X94378210Y-108489711D01*
X94290609Y-108620814D01*
X94290602Y-108620827D01*
X94230264Y-108766498D01*
X94230261Y-108766510D01*
X94199500Y-108921153D01*
X90300499Y-108921153D01*
X90269738Y-108766510D01*
X90269737Y-108766503D01*
X90250424Y-108719879D01*
X90242956Y-108650410D01*
X90274231Y-108587931D01*
X90334320Y-108552279D01*
X90404145Y-108554773D01*
X90452667Y-108584746D01*
X90489707Y-108621786D01*
X90489711Y-108621789D01*
X90620814Y-108709390D01*
X90620827Y-108709397D01*
X90758683Y-108766498D01*
X90766503Y-108769737D01*
X90921153Y-108800499D01*
X90921156Y-108800500D01*
X90921158Y-108800500D01*
X91078844Y-108800500D01*
X91078845Y-108800499D01*
X91089179Y-108798443D01*
X91114287Y-108793450D01*
X91114292Y-108793449D01*
X91199800Y-108776439D01*
X91233497Y-108769737D01*
X91379179Y-108709394D01*
X91510289Y-108621789D01*
X91621789Y-108510289D01*
X91709394Y-108379179D01*
X91769737Y-108233497D01*
X91800500Y-108078842D01*
X91800500Y-107921158D01*
X91800500Y-107921155D01*
X91800499Y-107921153D01*
X91769738Y-107766510D01*
X91769737Y-107766503D01*
X91756062Y-107733489D01*
X91709397Y-107620827D01*
X91709390Y-107620814D01*
X91621789Y-107489711D01*
X91621786Y-107489707D01*
X91553232Y-107421153D01*
X96199500Y-107421153D01*
X96199500Y-107578846D01*
X96230261Y-107733489D01*
X96230264Y-107733501D01*
X96290602Y-107879172D01*
X96290609Y-107879185D01*
X96378210Y-108010288D01*
X96378213Y-108010292D01*
X96489707Y-108121786D01*
X96489711Y-108121789D01*
X96620814Y-108209390D01*
X96620827Y-108209397D01*
X96766498Y-108269735D01*
X96766503Y-108269737D01*
X96921153Y-108300499D01*
X96921156Y-108300500D01*
X96921158Y-108300500D01*
X97078844Y-108300500D01*
X97078845Y-108300499D01*
X97233497Y-108269737D01*
X97379179Y-108209394D01*
X97431110Y-108174694D01*
X97497785Y-108153816D01*
X97565165Y-108172300D01*
X97568863Y-108174676D01*
X97620821Y-108209394D01*
X97620823Y-108209395D01*
X97620825Y-108209396D01*
X97766498Y-108269735D01*
X97766503Y-108269737D01*
X97921153Y-108300499D01*
X97921156Y-108300500D01*
X97921158Y-108300500D01*
X98078844Y-108300500D01*
X98078845Y-108300499D01*
X98233497Y-108269737D01*
X98379179Y-108209394D01*
X98510289Y-108121789D01*
X98621789Y-108010289D01*
X98709394Y-107879179D01*
X98769737Y-107733497D01*
X98800500Y-107578842D01*
X98800500Y-107421158D01*
X98800500Y-107421155D01*
X98800499Y-107421153D01*
X98794402Y-107390500D01*
X98769737Y-107266503D01*
X98769735Y-107266498D01*
X98709397Y-107120827D01*
X98709390Y-107120814D01*
X98621789Y-106989711D01*
X98621786Y-106989707D01*
X98510292Y-106878213D01*
X98510288Y-106878210D01*
X98379185Y-106790609D01*
X98379172Y-106790602D01*
X98233501Y-106730264D01*
X98233489Y-106730261D01*
X98078845Y-106699500D01*
X98078842Y-106699500D01*
X97921158Y-106699500D01*
X97921155Y-106699500D01*
X97766510Y-106730261D01*
X97766498Y-106730264D01*
X97620827Y-106790602D01*
X97620814Y-106790609D01*
X97568891Y-106825304D01*
X97502214Y-106846182D01*
X97434833Y-106827698D01*
X97431109Y-106825304D01*
X97379185Y-106790609D01*
X97379172Y-106790602D01*
X97233501Y-106730264D01*
X97233489Y-106730261D01*
X97078845Y-106699500D01*
X97078842Y-106699500D01*
X96921158Y-106699500D01*
X96921155Y-106699500D01*
X96766510Y-106730261D01*
X96766498Y-106730264D01*
X96620827Y-106790602D01*
X96620814Y-106790609D01*
X96489711Y-106878210D01*
X96489707Y-106878213D01*
X96378213Y-106989707D01*
X96378210Y-106989711D01*
X96290609Y-107120814D01*
X96290602Y-107120827D01*
X96230264Y-107266498D01*
X96230261Y-107266510D01*
X96199500Y-107421153D01*
X91553232Y-107421153D01*
X91510292Y-107378213D01*
X91510288Y-107378210D01*
X91379185Y-107290609D01*
X91379172Y-107290602D01*
X91233501Y-107230264D01*
X91233489Y-107230261D01*
X91078845Y-107199500D01*
X91078842Y-107199500D01*
X90921158Y-107199500D01*
X90921155Y-107199500D01*
X90766510Y-107230261D01*
X90766498Y-107230264D01*
X90620827Y-107290602D01*
X90620814Y-107290609D01*
X90489711Y-107378210D01*
X90489707Y-107378213D01*
X90378213Y-107489707D01*
X90378210Y-107489711D01*
X90290609Y-107620814D01*
X90290602Y-107620827D01*
X90230264Y-107766498D01*
X90230261Y-107766510D01*
X90199500Y-107921153D01*
X90199500Y-108078846D01*
X90230261Y-108233489D01*
X90230263Y-108233497D01*
X90249575Y-108280120D01*
X90257043Y-108349590D01*
X90225767Y-108412069D01*
X90165678Y-108447721D01*
X90095853Y-108445226D01*
X90047332Y-108415253D01*
X90010292Y-108378213D01*
X90010288Y-108378210D01*
X89879185Y-108290609D01*
X89879172Y-108290602D01*
X89733501Y-108230264D01*
X89733489Y-108230261D01*
X89578845Y-108199500D01*
X89578842Y-108199500D01*
X89421158Y-108199500D01*
X89421155Y-108199500D01*
X89266510Y-108230261D01*
X89266498Y-108230264D01*
X89120827Y-108290602D01*
X89120814Y-108290609D01*
X88989711Y-108378210D01*
X88989707Y-108378213D01*
X88878213Y-108489707D01*
X88878210Y-108489711D01*
X88790609Y-108620814D01*
X88790602Y-108620827D01*
X88730264Y-108766498D01*
X88730261Y-108766510D01*
X88699500Y-108921153D01*
X78500500Y-108921153D01*
X78500500Y-107921153D01*
X80799500Y-107921153D01*
X80799500Y-108078846D01*
X80830261Y-108233489D01*
X80830264Y-108233501D01*
X80890602Y-108379172D01*
X80890609Y-108379185D01*
X80978210Y-108510288D01*
X80978213Y-108510292D01*
X81089707Y-108621786D01*
X81089711Y-108621789D01*
X81220814Y-108709390D01*
X81220827Y-108709397D01*
X81358683Y-108766498D01*
X81366503Y-108769737D01*
X81521153Y-108800499D01*
X81521156Y-108800500D01*
X81521158Y-108800500D01*
X81678844Y-108800500D01*
X81678845Y-108800499D01*
X81689179Y-108798443D01*
X81714287Y-108793450D01*
X81714292Y-108793449D01*
X81799800Y-108776439D01*
X81833497Y-108769737D01*
X81979179Y-108709394D01*
X82110289Y-108621789D01*
X82221789Y-108510289D01*
X82309394Y-108379179D01*
X82369737Y-108233497D01*
X82400500Y-108078842D01*
X82400500Y-107921158D01*
X82400500Y-107921155D01*
X82400499Y-107921153D01*
X82369738Y-107766510D01*
X82369737Y-107766503D01*
X82356062Y-107733489D01*
X82309397Y-107620827D01*
X82309390Y-107620814D01*
X82221789Y-107489711D01*
X82221786Y-107489707D01*
X82110292Y-107378213D01*
X82110288Y-107378210D01*
X81979185Y-107290609D01*
X81979172Y-107290602D01*
X81833501Y-107230264D01*
X81833489Y-107230261D01*
X81678845Y-107199500D01*
X81678842Y-107199500D01*
X81521158Y-107199500D01*
X81521155Y-107199500D01*
X81366510Y-107230261D01*
X81366498Y-107230264D01*
X81220827Y-107290602D01*
X81220814Y-107290609D01*
X81089711Y-107378210D01*
X81089707Y-107378213D01*
X80978213Y-107489707D01*
X80978210Y-107489711D01*
X80890609Y-107620814D01*
X80890602Y-107620827D01*
X80830264Y-107766498D01*
X80830261Y-107766510D01*
X80799500Y-107921153D01*
X78500500Y-107921153D01*
X78500500Y-106555280D01*
X78520185Y-106488241D01*
X78572989Y-106442486D01*
X78642147Y-106432542D01*
X78705703Y-106461567D01*
X78739061Y-106507828D01*
X78773021Y-106589819D01*
X78773028Y-106589831D01*
X78860629Y-106720934D01*
X78860632Y-106720938D01*
X78972126Y-106832432D01*
X78972130Y-106832435D01*
X79103233Y-106920036D01*
X79103246Y-106920043D01*
X79221856Y-106969172D01*
X79248922Y-106980383D01*
X79403572Y-107011145D01*
X79403575Y-107011146D01*
X79403577Y-107011146D01*
X79561263Y-107011146D01*
X79561264Y-107011145D01*
X79715916Y-106980383D01*
X79861598Y-106920040D01*
X79992708Y-106832435D01*
X80104208Y-106720935D01*
X80191813Y-106589825D01*
X80252156Y-106444143D01*
X80282919Y-106289488D01*
X80282919Y-106131804D01*
X80282919Y-106131801D01*
X80282918Y-106131799D01*
X80272556Y-106079707D01*
X80252156Y-105977149D01*
X80212167Y-105880606D01*
X80191816Y-105831473D01*
X80191809Y-105831460D01*
X80104208Y-105700357D01*
X80104205Y-105700353D01*
X79992711Y-105588859D01*
X79992707Y-105588856D01*
X79861604Y-105501255D01*
X79861591Y-105501248D01*
X79715920Y-105440910D01*
X79715908Y-105440907D01*
X79561264Y-105410146D01*
X79561261Y-105410146D01*
X79403577Y-105410146D01*
X79403574Y-105410146D01*
X79248929Y-105440907D01*
X79248917Y-105440910D01*
X79103246Y-105501248D01*
X79103233Y-105501255D01*
X78972130Y-105588856D01*
X78972126Y-105588859D01*
X78860632Y-105700353D01*
X78860629Y-105700357D01*
X78773028Y-105831460D01*
X78773021Y-105831473D01*
X78739061Y-105913463D01*
X78695220Y-105967867D01*
X78628926Y-105989932D01*
X78561227Y-105972653D01*
X78513616Y-105921516D01*
X78500500Y-105866011D01*
X78500500Y-104421153D01*
X85699500Y-104421153D01*
X85699500Y-104578846D01*
X85730261Y-104733489D01*
X85730264Y-104733501D01*
X85790602Y-104879172D01*
X85790609Y-104879185D01*
X85878210Y-105010288D01*
X85878213Y-105010292D01*
X85989707Y-105121786D01*
X85989711Y-105121789D01*
X86120814Y-105209390D01*
X86120827Y-105209397D01*
X86258683Y-105266498D01*
X86266503Y-105269737D01*
X86421153Y-105300499D01*
X86421156Y-105300500D01*
X86421158Y-105300500D01*
X86578844Y-105300500D01*
X86578845Y-105300499D01*
X86733497Y-105269737D01*
X86879179Y-105209394D01*
X86931110Y-105174694D01*
X86997785Y-105153816D01*
X87065165Y-105172300D01*
X87068863Y-105174676D01*
X87120821Y-105209394D01*
X87120823Y-105209395D01*
X87120825Y-105209396D01*
X87258683Y-105266498D01*
X87266503Y-105269737D01*
X87421153Y-105300499D01*
X87421156Y-105300500D01*
X87421158Y-105300500D01*
X87578844Y-105300500D01*
X87578845Y-105300499D01*
X87733497Y-105269737D01*
X87879179Y-105209394D01*
X88010289Y-105121789D01*
X88121789Y-105010289D01*
X88135539Y-104989711D01*
X88146898Y-104972712D01*
X88200510Y-104927906D01*
X88269835Y-104919199D01*
X88332862Y-104949353D01*
X88353102Y-104972712D01*
X88378207Y-105010284D01*
X88378213Y-105010292D01*
X88489707Y-105121786D01*
X88489711Y-105121789D01*
X88620814Y-105209390D01*
X88620827Y-105209397D01*
X88758683Y-105266498D01*
X88766503Y-105269737D01*
X88921153Y-105300499D01*
X88921156Y-105300500D01*
X88921158Y-105300500D01*
X89078844Y-105300500D01*
X89078845Y-105300499D01*
X89233497Y-105269737D01*
X89379179Y-105209394D01*
X89510289Y-105121789D01*
X89621789Y-105010289D01*
X89681348Y-104921153D01*
X90199500Y-104921153D01*
X90199500Y-105078846D01*
X90230261Y-105233489D01*
X90230264Y-105233501D01*
X90290602Y-105379172D01*
X90290609Y-105379185D01*
X90378210Y-105510288D01*
X90378213Y-105510292D01*
X90489707Y-105621786D01*
X90489711Y-105621789D01*
X90620814Y-105709390D01*
X90620827Y-105709397D01*
X90766498Y-105769735D01*
X90766503Y-105769737D01*
X90921153Y-105800499D01*
X90921156Y-105800500D01*
X90921158Y-105800500D01*
X91078844Y-105800500D01*
X91078845Y-105800499D01*
X91233497Y-105769737D01*
X91379179Y-105709394D01*
X91510289Y-105621789D01*
X91621789Y-105510289D01*
X91681348Y-105421153D01*
X92699500Y-105421153D01*
X92699500Y-105578846D01*
X92730261Y-105733489D01*
X92730264Y-105733501D01*
X92790602Y-105879172D01*
X92790609Y-105879185D01*
X92878210Y-106010288D01*
X92878213Y-106010292D01*
X92989707Y-106121786D01*
X92989711Y-106121789D01*
X93120814Y-106209390D01*
X93120827Y-106209397D01*
X93266498Y-106269735D01*
X93266503Y-106269737D01*
X93416593Y-106299592D01*
X93421153Y-106300499D01*
X93421156Y-106300500D01*
X93421158Y-106300500D01*
X93578841Y-106300500D01*
X93578842Y-106300500D01*
X93583405Y-106299592D01*
X93652996Y-106305815D01*
X93708176Y-106348675D01*
X93731425Y-106414563D01*
X93729221Y-106445398D01*
X93716141Y-106511158D01*
X93716141Y-106668846D01*
X93746902Y-106823489D01*
X93746905Y-106823501D01*
X93807243Y-106969172D01*
X93807250Y-106969185D01*
X93894851Y-107100288D01*
X93894854Y-107100292D01*
X94006348Y-107211786D01*
X94006352Y-107211789D01*
X94137455Y-107299390D01*
X94137468Y-107299397D01*
X94283139Y-107359735D01*
X94283144Y-107359737D01*
X94437794Y-107390499D01*
X94437797Y-107390500D01*
X94437799Y-107390500D01*
X94595485Y-107390500D01*
X94595486Y-107390499D01*
X94750138Y-107359737D01*
X94808209Y-107335683D01*
X94893139Y-107300505D01*
X94893140Y-107300504D01*
X94895820Y-107299394D01*
X95026930Y-107211789D01*
X95138430Y-107100289D01*
X95226035Y-106969179D01*
X95286378Y-106823497D01*
X95317141Y-106668842D01*
X95317141Y-106511158D01*
X95317141Y-106511155D01*
X95317140Y-106511153D01*
X95304060Y-106445398D01*
X95286378Y-106356503D01*
X95262805Y-106299592D01*
X95226038Y-106210827D01*
X95226031Y-106210814D01*
X95138430Y-106079711D01*
X95138427Y-106079707D01*
X95026933Y-105968213D01*
X95026929Y-105968210D01*
X94895826Y-105880609D01*
X94895813Y-105880602D01*
X94750142Y-105820264D01*
X94750130Y-105820261D01*
X94595486Y-105789500D01*
X94595483Y-105789500D01*
X94437799Y-105789500D01*
X94437798Y-105789500D01*
X94433222Y-105790410D01*
X94363631Y-105784179D01*
X94308456Y-105741313D01*
X94285214Y-105675422D01*
X94287420Y-105644599D01*
X94300500Y-105578844D01*
X94300500Y-105421155D01*
X94300499Y-105421153D01*
X94269738Y-105266510D01*
X94269737Y-105266503D01*
X94246080Y-105209390D01*
X94209397Y-105120827D01*
X94209390Y-105120814D01*
X94121789Y-104989711D01*
X94121786Y-104989707D01*
X94010292Y-104878213D01*
X94010288Y-104878210D01*
X93879185Y-104790609D01*
X93879172Y-104790602D01*
X93733501Y-104730264D01*
X93733489Y-104730261D01*
X93578845Y-104699500D01*
X93578842Y-104699500D01*
X93421158Y-104699500D01*
X93421155Y-104699500D01*
X93266510Y-104730261D01*
X93266498Y-104730264D01*
X93120827Y-104790602D01*
X93120814Y-104790609D01*
X92989711Y-104878210D01*
X92989707Y-104878213D01*
X92878213Y-104989707D01*
X92878210Y-104989711D01*
X92790609Y-105120814D01*
X92790602Y-105120827D01*
X92730264Y-105266498D01*
X92730261Y-105266510D01*
X92699500Y-105421153D01*
X91681348Y-105421153D01*
X91709394Y-105379179D01*
X91769737Y-105233497D01*
X91800500Y-105078842D01*
X91800500Y-104921158D01*
X91800500Y-104921155D01*
X91800499Y-104921153D01*
X91774531Y-104790606D01*
X91769737Y-104766503D01*
X91756062Y-104733489D01*
X91709397Y-104620827D01*
X91709390Y-104620814D01*
X91621789Y-104489711D01*
X91621786Y-104489707D01*
X91510292Y-104378213D01*
X91510288Y-104378210D01*
X91379185Y-104290609D01*
X91379172Y-104290602D01*
X91233501Y-104230264D01*
X91233489Y-104230261D01*
X91078845Y-104199500D01*
X91078842Y-104199500D01*
X90921158Y-104199500D01*
X90921155Y-104199500D01*
X90766510Y-104230261D01*
X90766498Y-104230264D01*
X90620827Y-104290602D01*
X90620814Y-104290609D01*
X90489711Y-104378210D01*
X90489707Y-104378213D01*
X90378213Y-104489707D01*
X90378210Y-104489711D01*
X90290609Y-104620814D01*
X90290602Y-104620827D01*
X90230264Y-104766498D01*
X90230261Y-104766510D01*
X90199500Y-104921153D01*
X89681348Y-104921153D01*
X89709394Y-104879179D01*
X89769737Y-104733497D01*
X89800500Y-104578842D01*
X89800500Y-104421158D01*
X89800500Y-104421155D01*
X89800499Y-104421153D01*
X89774531Y-104290606D01*
X89769737Y-104266503D01*
X89769735Y-104266498D01*
X89709397Y-104120827D01*
X89709390Y-104120814D01*
X89621789Y-103989711D01*
X89621786Y-103989707D01*
X89510292Y-103878213D01*
X89510288Y-103878210D01*
X89379185Y-103790609D01*
X89379172Y-103790602D01*
X89233501Y-103730264D01*
X89233489Y-103730261D01*
X89078845Y-103699500D01*
X89078842Y-103699500D01*
X88921158Y-103699500D01*
X88921155Y-103699500D01*
X88766510Y-103730261D01*
X88766498Y-103730264D01*
X88620827Y-103790602D01*
X88620814Y-103790609D01*
X88489711Y-103878210D01*
X88489707Y-103878213D01*
X88378213Y-103989707D01*
X88353102Y-104027289D01*
X88299489Y-104072093D01*
X88230164Y-104080800D01*
X88167137Y-104050645D01*
X88146898Y-104027289D01*
X88121786Y-103989707D01*
X88010292Y-103878213D01*
X88010288Y-103878210D01*
X87879185Y-103790609D01*
X87879172Y-103790602D01*
X87733501Y-103730264D01*
X87733489Y-103730261D01*
X87578845Y-103699500D01*
X87578842Y-103699500D01*
X87421158Y-103699500D01*
X87421155Y-103699500D01*
X87266510Y-103730261D01*
X87266498Y-103730264D01*
X87120827Y-103790602D01*
X87120814Y-103790609D01*
X87068891Y-103825304D01*
X87002214Y-103846182D01*
X86934833Y-103827698D01*
X86931109Y-103825304D01*
X86879185Y-103790609D01*
X86879172Y-103790602D01*
X86733501Y-103730264D01*
X86733489Y-103730261D01*
X86578845Y-103699500D01*
X86578842Y-103699500D01*
X86421158Y-103699500D01*
X86421155Y-103699500D01*
X86266510Y-103730261D01*
X86266498Y-103730264D01*
X86120827Y-103790602D01*
X86120814Y-103790609D01*
X85989711Y-103878210D01*
X85989707Y-103878213D01*
X85878213Y-103989707D01*
X85878210Y-103989711D01*
X85790609Y-104120814D01*
X85790602Y-104120827D01*
X85730264Y-104266498D01*
X85730261Y-104266510D01*
X85699500Y-104421153D01*
X78500500Y-104421153D01*
X78500500Y-101921153D01*
X85699500Y-101921153D01*
X85699500Y-102078846D01*
X85730261Y-102233489D01*
X85730264Y-102233501D01*
X85790602Y-102379172D01*
X85790609Y-102379185D01*
X85878210Y-102510288D01*
X85878213Y-102510292D01*
X85989707Y-102621786D01*
X85989711Y-102621789D01*
X86120814Y-102709390D01*
X86120827Y-102709397D01*
X86258683Y-102766498D01*
X86266503Y-102769737D01*
X86421153Y-102800499D01*
X86421156Y-102800500D01*
X86421158Y-102800500D01*
X86578844Y-102800500D01*
X86578845Y-102800499D01*
X86733497Y-102769737D01*
X86879179Y-102709394D01*
X87010289Y-102621789D01*
X87121789Y-102510289D01*
X87135539Y-102489711D01*
X87146898Y-102472712D01*
X87200510Y-102427906D01*
X87269835Y-102419199D01*
X87332862Y-102449353D01*
X87353102Y-102472712D01*
X87378207Y-102510284D01*
X87378213Y-102510292D01*
X87489707Y-102621786D01*
X87489711Y-102621789D01*
X87620814Y-102709390D01*
X87620827Y-102709397D01*
X87758683Y-102766498D01*
X87766503Y-102769737D01*
X87921153Y-102800499D01*
X87921156Y-102800500D01*
X87921158Y-102800500D01*
X88078844Y-102800500D01*
X88078845Y-102800499D01*
X88233497Y-102769737D01*
X88379179Y-102709394D01*
X88510289Y-102621789D01*
X88621789Y-102510289D01*
X88681348Y-102421153D01*
X91199500Y-102421153D01*
X91199500Y-102578846D01*
X91230261Y-102733489D01*
X91230264Y-102733501D01*
X91290602Y-102879172D01*
X91290609Y-102879185D01*
X91378210Y-103010288D01*
X91378213Y-103010292D01*
X91489707Y-103121786D01*
X91489711Y-103121789D01*
X91620814Y-103209390D01*
X91620827Y-103209397D01*
X91758683Y-103266498D01*
X91766503Y-103269737D01*
X91921153Y-103300499D01*
X91921156Y-103300500D01*
X91921158Y-103300500D01*
X92078844Y-103300500D01*
X92078845Y-103300499D01*
X92233497Y-103269737D01*
X92379179Y-103209394D01*
X92510289Y-103121789D01*
X92621789Y-103010289D01*
X92709394Y-102879179D01*
X92769737Y-102733497D01*
X92800500Y-102578842D01*
X92800500Y-102421158D01*
X92800500Y-102421155D01*
X92800499Y-102421153D01*
X92787426Y-102355431D01*
X92769737Y-102266503D01*
X92756062Y-102233489D01*
X92709397Y-102120827D01*
X92709390Y-102120814D01*
X92621789Y-101989711D01*
X92621786Y-101989707D01*
X92510292Y-101878213D01*
X92510288Y-101878210D01*
X92379185Y-101790609D01*
X92379172Y-101790602D01*
X92233501Y-101730264D01*
X92233489Y-101730261D01*
X92078845Y-101699500D01*
X92078842Y-101699500D01*
X91921158Y-101699500D01*
X91921155Y-101699500D01*
X91766510Y-101730261D01*
X91766498Y-101730264D01*
X91620827Y-101790602D01*
X91620814Y-101790609D01*
X91489711Y-101878210D01*
X91489707Y-101878213D01*
X91378213Y-101989707D01*
X91378210Y-101989711D01*
X91290609Y-102120814D01*
X91290602Y-102120827D01*
X91230264Y-102266498D01*
X91230261Y-102266510D01*
X91199500Y-102421153D01*
X88681348Y-102421153D01*
X88709394Y-102379179D01*
X88769737Y-102233497D01*
X88800500Y-102078842D01*
X88800500Y-101921158D01*
X88800500Y-101921155D01*
X88800499Y-101921153D01*
X88774531Y-101790606D01*
X88769737Y-101766503D01*
X88756062Y-101733489D01*
X88709397Y-101620827D01*
X88709390Y-101620814D01*
X88621789Y-101489711D01*
X88621786Y-101489707D01*
X88510292Y-101378213D01*
X88510288Y-101378210D01*
X88379185Y-101290609D01*
X88379172Y-101290602D01*
X88233501Y-101230264D01*
X88233489Y-101230261D01*
X88078845Y-101199500D01*
X88078842Y-101199500D01*
X87921158Y-101199500D01*
X87921155Y-101199500D01*
X87766510Y-101230261D01*
X87766498Y-101230264D01*
X87620827Y-101290602D01*
X87620814Y-101290609D01*
X87489711Y-101378210D01*
X87489707Y-101378213D01*
X87378213Y-101489707D01*
X87353102Y-101527289D01*
X87299489Y-101572093D01*
X87230164Y-101580800D01*
X87167137Y-101550645D01*
X87146898Y-101527289D01*
X87121786Y-101489707D01*
X87010292Y-101378213D01*
X87010288Y-101378210D01*
X86879185Y-101290609D01*
X86879172Y-101290602D01*
X86733501Y-101230264D01*
X86733489Y-101230261D01*
X86578845Y-101199500D01*
X86578842Y-101199500D01*
X86421158Y-101199500D01*
X86421155Y-101199500D01*
X86266510Y-101230261D01*
X86266498Y-101230264D01*
X86120827Y-101290602D01*
X86120814Y-101290609D01*
X85989711Y-101378210D01*
X85989707Y-101378213D01*
X85878213Y-101489707D01*
X85878210Y-101489711D01*
X85790609Y-101620814D01*
X85790602Y-101620827D01*
X85730264Y-101766498D01*
X85730261Y-101766510D01*
X85699500Y-101921153D01*
X78500500Y-101921153D01*
X78500500Y-97921153D01*
X82199500Y-97921153D01*
X82199500Y-98078846D01*
X82230261Y-98233489D01*
X82230264Y-98233501D01*
X82290602Y-98379172D01*
X82290609Y-98379185D01*
X82378210Y-98510288D01*
X82378213Y-98510292D01*
X82489707Y-98621786D01*
X82489711Y-98621789D01*
X82620814Y-98709390D01*
X82620827Y-98709397D01*
X82758683Y-98766498D01*
X82766503Y-98769737D01*
X82882468Y-98792804D01*
X82921153Y-98800499D01*
X82921156Y-98800500D01*
X82921158Y-98800500D01*
X83078844Y-98800500D01*
X83078845Y-98800499D01*
X83233497Y-98769737D01*
X83379179Y-98709394D01*
X83510289Y-98621789D01*
X83621789Y-98510289D01*
X83709394Y-98379179D01*
X83769737Y-98233497D01*
X83800500Y-98078842D01*
X83800500Y-97921158D01*
X83800500Y-97921155D01*
X83800499Y-97921153D01*
X84199500Y-97921153D01*
X84199500Y-98078846D01*
X84230261Y-98233489D01*
X84230264Y-98233501D01*
X84290602Y-98379172D01*
X84290609Y-98379185D01*
X84378210Y-98510288D01*
X84378213Y-98510292D01*
X84489707Y-98621786D01*
X84489711Y-98621789D01*
X84620814Y-98709390D01*
X84620827Y-98709397D01*
X84758683Y-98766498D01*
X84766503Y-98769737D01*
X84793423Y-98775091D01*
X84815624Y-98779508D01*
X84877535Y-98811892D01*
X84912109Y-98872608D01*
X84908370Y-98942377D01*
X84881706Y-98984697D01*
X84882076Y-98985001D01*
X84879661Y-98987942D01*
X84879123Y-98988798D01*
X84878212Y-98989708D01*
X84878210Y-98989711D01*
X84790609Y-99120814D01*
X84790602Y-99120827D01*
X84730264Y-99266498D01*
X84730261Y-99266510D01*
X84699500Y-99421153D01*
X84699500Y-99578846D01*
X84730261Y-99733489D01*
X84730264Y-99733501D01*
X84790602Y-99879172D01*
X84790609Y-99879185D01*
X84878210Y-100010288D01*
X84878213Y-100010292D01*
X84989707Y-100121786D01*
X84989711Y-100121789D01*
X85120814Y-100209390D01*
X85120827Y-100209397D01*
X85266498Y-100269735D01*
X85266503Y-100269737D01*
X85421153Y-100300499D01*
X85421156Y-100300500D01*
X85421158Y-100300500D01*
X85578844Y-100300500D01*
X85578845Y-100300499D01*
X85733497Y-100269737D01*
X85879179Y-100209394D01*
X86010289Y-100121789D01*
X86121789Y-100010289D01*
X86209394Y-99879179D01*
X86269737Y-99733497D01*
X86300500Y-99578842D01*
X86300500Y-99421158D01*
X86300500Y-99421155D01*
X86300499Y-99421153D01*
X87699500Y-99421153D01*
X87699500Y-99578846D01*
X87730261Y-99733489D01*
X87730264Y-99733501D01*
X87790602Y-99879172D01*
X87790609Y-99879185D01*
X87878210Y-100010288D01*
X87878213Y-100010292D01*
X87989707Y-100121786D01*
X87989711Y-100121789D01*
X88120814Y-100209390D01*
X88120827Y-100209397D01*
X88266498Y-100269735D01*
X88266503Y-100269737D01*
X88421153Y-100300499D01*
X88421156Y-100300500D01*
X88421158Y-100300500D01*
X88578844Y-100300500D01*
X88578845Y-100300499D01*
X88733497Y-100269737D01*
X88879179Y-100209394D01*
X89010289Y-100121789D01*
X89121789Y-100010289D01*
X89209394Y-99879179D01*
X89216677Y-99861593D01*
X89260514Y-99807190D01*
X89326807Y-99785122D01*
X89355431Y-99787426D01*
X89421155Y-99800500D01*
X89421158Y-99800500D01*
X89578844Y-99800500D01*
X89578845Y-99800499D01*
X89733497Y-99769737D01*
X89879179Y-99709394D01*
X90010289Y-99621789D01*
X90121789Y-99510289D01*
X90209394Y-99379179D01*
X90269737Y-99233497D01*
X90300500Y-99078842D01*
X90300500Y-98921158D01*
X90300500Y-98921155D01*
X90300499Y-98921153D01*
X95199500Y-98921153D01*
X95199500Y-99078846D01*
X95230261Y-99233489D01*
X95230264Y-99233501D01*
X95292937Y-99384808D01*
X95290626Y-99385765D01*
X95302622Y-99443459D01*
X95293586Y-99480927D01*
X95236358Y-99619089D01*
X95236355Y-99619101D01*
X95205594Y-99773744D01*
X95205594Y-99931437D01*
X95236355Y-100086080D01*
X95236358Y-100086092D01*
X95296696Y-100231763D01*
X95296703Y-100231776D01*
X95384304Y-100362879D01*
X95384307Y-100362883D01*
X95495801Y-100474377D01*
X95495805Y-100474380D01*
X95626908Y-100561981D01*
X95632285Y-100564855D01*
X95631205Y-100566874D01*
X95677663Y-100604310D01*
X95699730Y-100670603D01*
X95682453Y-100738303D01*
X95631317Y-100785915D01*
X95623270Y-100789590D01*
X95620833Y-100790599D01*
X95620814Y-100790609D01*
X95489711Y-100878210D01*
X95489707Y-100878213D01*
X95378213Y-100989707D01*
X95378210Y-100989711D01*
X95290609Y-101120814D01*
X95290602Y-101120827D01*
X95230264Y-101266498D01*
X95230261Y-101266510D01*
X95199500Y-101421153D01*
X95199500Y-101578846D01*
X95230261Y-101733489D01*
X95230264Y-101733501D01*
X95290602Y-101879172D01*
X95290609Y-101879185D01*
X95378210Y-102010288D01*
X95378213Y-102010292D01*
X95489707Y-102121786D01*
X95489711Y-102121789D01*
X95620817Y-102209392D01*
X95620819Y-102209393D01*
X95620821Y-102209394D01*
X95638409Y-102216679D01*
X95692812Y-102260520D01*
X95714877Y-102326814D01*
X95712573Y-102355431D01*
X95699500Y-102421153D01*
X95699500Y-102578846D01*
X95730261Y-102733489D01*
X95730264Y-102733501D01*
X95790602Y-102879172D01*
X95790609Y-102879185D01*
X95825304Y-102931109D01*
X95846182Y-102997786D01*
X95827698Y-103065167D01*
X95825304Y-103068891D01*
X95790609Y-103120814D01*
X95790602Y-103120827D01*
X95730264Y-103266498D01*
X95730261Y-103266510D01*
X95699500Y-103421153D01*
X95699500Y-103578846D01*
X95730261Y-103733489D01*
X95730264Y-103733501D01*
X95790602Y-103879172D01*
X95790609Y-103879185D01*
X95878210Y-104010288D01*
X95878213Y-104010292D01*
X95989707Y-104121786D01*
X95989711Y-104121789D01*
X96120814Y-104209390D01*
X96120827Y-104209397D01*
X96258683Y-104266498D01*
X96266503Y-104269737D01*
X96421153Y-104300499D01*
X96421156Y-104300500D01*
X96421158Y-104300500D01*
X96578844Y-104300500D01*
X96578845Y-104300499D01*
X96733497Y-104269737D01*
X96879179Y-104209394D01*
X96931110Y-104174694D01*
X96997785Y-104153816D01*
X97065165Y-104172300D01*
X97068863Y-104174676D01*
X97120821Y-104209394D01*
X97120823Y-104209395D01*
X97120825Y-104209396D01*
X97258683Y-104266498D01*
X97266503Y-104269737D01*
X97421153Y-104300499D01*
X97421156Y-104300500D01*
X97421158Y-104300500D01*
X97578844Y-104300500D01*
X97578845Y-104300499D01*
X97733497Y-104269737D01*
X97879179Y-104209394D01*
X98010289Y-104121789D01*
X98121789Y-104010289D01*
X98209394Y-103879179D01*
X98269737Y-103733497D01*
X98300500Y-103578842D01*
X98300500Y-103421158D01*
X98300500Y-103421155D01*
X98300499Y-103421153D01*
X98269738Y-103266510D01*
X98269737Y-103266503D01*
X98209794Y-103121786D01*
X98209397Y-103120827D01*
X98209390Y-103120814D01*
X98121790Y-102989712D01*
X98121784Y-102989705D01*
X98053232Y-102921153D01*
X103199500Y-102921153D01*
X103199500Y-103078846D01*
X103230261Y-103233489D01*
X103230264Y-103233501D01*
X103290602Y-103379172D01*
X103290609Y-103379185D01*
X103378210Y-103510288D01*
X103378213Y-103510292D01*
X103489707Y-103621786D01*
X103489711Y-103621789D01*
X103620814Y-103709390D01*
X103620827Y-103709397D01*
X103766498Y-103769735D01*
X103766503Y-103769737D01*
X103921153Y-103800499D01*
X103921156Y-103800500D01*
X103921158Y-103800500D01*
X104078844Y-103800500D01*
X104078845Y-103800499D01*
X104233497Y-103769737D01*
X104379179Y-103709394D01*
X104510289Y-103621789D01*
X104621789Y-103510289D01*
X104709394Y-103379179D01*
X104769737Y-103233497D01*
X104800500Y-103078842D01*
X104800500Y-102921158D01*
X104800500Y-102921155D01*
X104800499Y-102921153D01*
X104774531Y-102790606D01*
X104769737Y-102766503D01*
X104756062Y-102733489D01*
X104709397Y-102620827D01*
X104709390Y-102620814D01*
X104621789Y-102489711D01*
X104621786Y-102489707D01*
X104510292Y-102378213D01*
X104510288Y-102378210D01*
X104379185Y-102290609D01*
X104379172Y-102290602D01*
X104233501Y-102230264D01*
X104233489Y-102230261D01*
X104078845Y-102199500D01*
X104078842Y-102199500D01*
X103921158Y-102199500D01*
X103921155Y-102199500D01*
X103766510Y-102230261D01*
X103766498Y-102230264D01*
X103620827Y-102290602D01*
X103620814Y-102290609D01*
X103489711Y-102378210D01*
X103489707Y-102378213D01*
X103378213Y-102489707D01*
X103378210Y-102489711D01*
X103290609Y-102620814D01*
X103290602Y-102620827D01*
X103230264Y-102766498D01*
X103230261Y-102766510D01*
X103199500Y-102921153D01*
X98053232Y-102921153D01*
X98010292Y-102878213D01*
X98010288Y-102878210D01*
X97879185Y-102790609D01*
X97879172Y-102790602D01*
X97733501Y-102730264D01*
X97733489Y-102730261D01*
X97578845Y-102699500D01*
X97578842Y-102699500D01*
X97424500Y-102699500D01*
X97357461Y-102679815D01*
X97311706Y-102627011D01*
X97300500Y-102575500D01*
X97300500Y-102421155D01*
X97300499Y-102421153D01*
X97287426Y-102355431D01*
X97269737Y-102266503D01*
X97256062Y-102233489D01*
X97209397Y-102120827D01*
X97209390Y-102120814D01*
X97121789Y-101989711D01*
X97121786Y-101989707D01*
X97010292Y-101878213D01*
X97010288Y-101878210D01*
X96879185Y-101790609D01*
X96879179Y-101790606D01*
X96861589Y-101783320D01*
X96807186Y-101739478D01*
X96785122Y-101673184D01*
X96787425Y-101644571D01*
X96800500Y-101578842D01*
X96800500Y-101421158D01*
X96800500Y-101421155D01*
X96800499Y-101421153D01*
X96774531Y-101290606D01*
X96769737Y-101266503D01*
X96769735Y-101266498D01*
X96709397Y-101120827D01*
X96709390Y-101120814D01*
X96621789Y-100989711D01*
X96621786Y-100989707D01*
X96510292Y-100878213D01*
X96510288Y-100878210D01*
X96379185Y-100790609D01*
X96373809Y-100787736D01*
X96374885Y-100785722D01*
X96328412Y-100748254D01*
X96306362Y-100681955D01*
X96323656Y-100614260D01*
X96374804Y-100566661D01*
X96382821Y-100563000D01*
X96385273Y-100561985D01*
X96516383Y-100474380D01*
X96627883Y-100362880D01*
X96715488Y-100231770D01*
X96775831Y-100086088D01*
X96806594Y-99931433D01*
X96806594Y-99773749D01*
X96806594Y-99773746D01*
X96806593Y-99773744D01*
X96798586Y-99733489D01*
X96775831Y-99619094D01*
X96759158Y-99578842D01*
X96713157Y-99467783D01*
X96715473Y-99466823D01*
X96710924Y-99444978D01*
X96703240Y-99412593D01*
X96703730Y-99410427D01*
X96703468Y-99409168D01*
X96710093Y-99377971D01*
X96711211Y-99374791D01*
X96769737Y-99233497D01*
X96781227Y-99175731D01*
X96784150Y-99167422D01*
X96799617Y-99145929D01*
X96811892Y-99122464D01*
X96819708Y-99118012D01*
X96824963Y-99110712D01*
X96849595Y-99100994D01*
X96872607Y-99087890D01*
X96881589Y-99088371D01*
X96889958Y-99085070D01*
X96915934Y-99090211D01*
X96942377Y-99091629D01*
X96951209Y-99097194D01*
X96958497Y-99098637D01*
X96967955Y-99107746D01*
X96984696Y-99118295D01*
X96985001Y-99117924D01*
X96987957Y-99120350D01*
X96988806Y-99120885D01*
X96989707Y-99121786D01*
X96989711Y-99121789D01*
X97120814Y-99209390D01*
X97120827Y-99209397D01*
X97258683Y-99266498D01*
X97266503Y-99269737D01*
X97421153Y-99300499D01*
X97421156Y-99300500D01*
X97421158Y-99300500D01*
X97578844Y-99300500D01*
X97578845Y-99300499D01*
X97733497Y-99269737D01*
X97879179Y-99209394D01*
X98010289Y-99121789D01*
X98121789Y-99010289D01*
X98209394Y-98879179D01*
X98269737Y-98733497D01*
X98300500Y-98578842D01*
X98300500Y-98421158D01*
X98300500Y-98421155D01*
X98300499Y-98421153D01*
X98274531Y-98290606D01*
X98269737Y-98266503D01*
X98256062Y-98233489D01*
X98209397Y-98120827D01*
X98209390Y-98120814D01*
X98121789Y-97989711D01*
X98121786Y-97989707D01*
X98010292Y-97878213D01*
X98010288Y-97878210D01*
X97879185Y-97790609D01*
X97879172Y-97790602D01*
X97733501Y-97730264D01*
X97733489Y-97730261D01*
X97578845Y-97699500D01*
X97578842Y-97699500D01*
X97421158Y-97699500D01*
X97421155Y-97699500D01*
X97266510Y-97730261D01*
X97266498Y-97730264D01*
X97120827Y-97790602D01*
X97120814Y-97790609D01*
X96989711Y-97878210D01*
X96989707Y-97878213D01*
X96878213Y-97989707D01*
X96878210Y-97989711D01*
X96790609Y-98120814D01*
X96790602Y-98120827D01*
X96730264Y-98266498D01*
X96730261Y-98266507D01*
X96720491Y-98315626D01*
X96688105Y-98377536D01*
X96627389Y-98412110D01*
X96557620Y-98408369D01*
X96515303Y-98381704D01*
X96514999Y-98382076D01*
X96512040Y-98379647D01*
X96511193Y-98379114D01*
X96510292Y-98378213D01*
X96510288Y-98378210D01*
X96379185Y-98290609D01*
X96379172Y-98290602D01*
X96233501Y-98230264D01*
X96233489Y-98230261D01*
X96078845Y-98199500D01*
X96078842Y-98199500D01*
X95921158Y-98199500D01*
X95921155Y-98199500D01*
X95766510Y-98230261D01*
X95766498Y-98230264D01*
X95620827Y-98290602D01*
X95620814Y-98290609D01*
X95489711Y-98378210D01*
X95489707Y-98378213D01*
X95378213Y-98489707D01*
X95378210Y-98489711D01*
X95290609Y-98620814D01*
X95290602Y-98620827D01*
X95230264Y-98766498D01*
X95230261Y-98766510D01*
X95199500Y-98921153D01*
X90300499Y-98921153D01*
X90276499Y-98800499D01*
X90269737Y-98766503D01*
X90269735Y-98766498D01*
X90209397Y-98620827D01*
X90209390Y-98620814D01*
X90121789Y-98489711D01*
X90121786Y-98489707D01*
X90010292Y-98378213D01*
X90010288Y-98378210D01*
X89879185Y-98290609D01*
X89879172Y-98290602D01*
X89733501Y-98230264D01*
X89733489Y-98230261D01*
X89578845Y-98199500D01*
X89578842Y-98199500D01*
X89421158Y-98199500D01*
X89421155Y-98199500D01*
X89266510Y-98230261D01*
X89266498Y-98230264D01*
X89120827Y-98290602D01*
X89120814Y-98290609D01*
X88989711Y-98378210D01*
X88989707Y-98378213D01*
X88878213Y-98489707D01*
X88878210Y-98489711D01*
X88790609Y-98620814D01*
X88790603Y-98620826D01*
X88783319Y-98638411D01*
X88739477Y-98692814D01*
X88673182Y-98714877D01*
X88644568Y-98712573D01*
X88578846Y-98699500D01*
X88578842Y-98699500D01*
X88421158Y-98699500D01*
X88421155Y-98699500D01*
X88266510Y-98730261D01*
X88266498Y-98730264D01*
X88120827Y-98790602D01*
X88120814Y-98790609D01*
X87989711Y-98878210D01*
X87989707Y-98878213D01*
X87878213Y-98989707D01*
X87878210Y-98989711D01*
X87790609Y-99120814D01*
X87790602Y-99120827D01*
X87730264Y-99266498D01*
X87730261Y-99266510D01*
X87699500Y-99421153D01*
X86300499Y-99421153D01*
X86292148Y-99379172D01*
X86269737Y-99266503D01*
X86209421Y-99120885D01*
X86209397Y-99120827D01*
X86209390Y-99120814D01*
X86121789Y-98989711D01*
X86121786Y-98989707D01*
X86010292Y-98878213D01*
X86010288Y-98878210D01*
X85879185Y-98790609D01*
X85879172Y-98790602D01*
X85733501Y-98730264D01*
X85733491Y-98730261D01*
X85684374Y-98720491D01*
X85622463Y-98688106D01*
X85587889Y-98627389D01*
X85591630Y-98557620D01*
X85618296Y-98515304D01*
X85617924Y-98514999D01*
X85620357Y-98512033D01*
X85620891Y-98511186D01*
X85621789Y-98510289D01*
X85709394Y-98379179D01*
X85769737Y-98233497D01*
X85800500Y-98078842D01*
X85800500Y-97921158D01*
X85800500Y-97921155D01*
X85800499Y-97921153D01*
X85774531Y-97790606D01*
X85769737Y-97766503D01*
X85769735Y-97766498D01*
X85709397Y-97620827D01*
X85709390Y-97620814D01*
X85621789Y-97489711D01*
X85621786Y-97489707D01*
X85510292Y-97378213D01*
X85510288Y-97378210D01*
X85379185Y-97290609D01*
X85379172Y-97290602D01*
X85233501Y-97230264D01*
X85233489Y-97230261D01*
X85078845Y-97199500D01*
X85078842Y-97199500D01*
X84921158Y-97199500D01*
X84921155Y-97199500D01*
X84766510Y-97230261D01*
X84766498Y-97230264D01*
X84620827Y-97290602D01*
X84620814Y-97290609D01*
X84489711Y-97378210D01*
X84489707Y-97378213D01*
X84378213Y-97489707D01*
X84378210Y-97489711D01*
X84290609Y-97620814D01*
X84290602Y-97620827D01*
X84230264Y-97766498D01*
X84230261Y-97766510D01*
X84199500Y-97921153D01*
X83800499Y-97921153D01*
X83774531Y-97790606D01*
X83769737Y-97766503D01*
X83769735Y-97766498D01*
X83709397Y-97620827D01*
X83709390Y-97620814D01*
X83621789Y-97489711D01*
X83621786Y-97489707D01*
X83510292Y-97378213D01*
X83510288Y-97378210D01*
X83379185Y-97290609D01*
X83379172Y-97290602D01*
X83233501Y-97230264D01*
X83233489Y-97230261D01*
X83078845Y-97199500D01*
X83078842Y-97199500D01*
X82921158Y-97199500D01*
X82921155Y-97199500D01*
X82766510Y-97230261D01*
X82766498Y-97230264D01*
X82620827Y-97290602D01*
X82620814Y-97290609D01*
X82489711Y-97378210D01*
X82489707Y-97378213D01*
X82378213Y-97489707D01*
X82378210Y-97489711D01*
X82290609Y-97620814D01*
X82290602Y-97620827D01*
X82230264Y-97766498D01*
X82230261Y-97766510D01*
X82199500Y-97921153D01*
X78500500Y-97921153D01*
X78500500Y-95921153D01*
X88699500Y-95921153D01*
X88699500Y-96078846D01*
X88730261Y-96233489D01*
X88730264Y-96233501D01*
X88790602Y-96379172D01*
X88790609Y-96379185D01*
X88878210Y-96510288D01*
X88878213Y-96510292D01*
X88989707Y-96621786D01*
X88989711Y-96621789D01*
X89120814Y-96709390D01*
X89120827Y-96709397D01*
X89266498Y-96769735D01*
X89266503Y-96769737D01*
X89421153Y-96800499D01*
X89421156Y-96800500D01*
X89421158Y-96800500D01*
X89578844Y-96800500D01*
X89578845Y-96800499D01*
X89733497Y-96769737D01*
X89879179Y-96709394D01*
X90010289Y-96621789D01*
X90121789Y-96510289D01*
X90209394Y-96379179D01*
X90269737Y-96233497D01*
X90300500Y-96078842D01*
X90300500Y-95921158D01*
X90300500Y-95921155D01*
X90300499Y-95921153D01*
X97199500Y-95921153D01*
X97199500Y-96078846D01*
X97230261Y-96233489D01*
X97230264Y-96233501D01*
X97290602Y-96379172D01*
X97290609Y-96379185D01*
X97378210Y-96510288D01*
X97378213Y-96510292D01*
X97489707Y-96621786D01*
X97489711Y-96621789D01*
X97620814Y-96709390D01*
X97620827Y-96709397D01*
X97766498Y-96769735D01*
X97766503Y-96769737D01*
X97921153Y-96800499D01*
X97921156Y-96800500D01*
X97921158Y-96800500D01*
X98078844Y-96800500D01*
X98078845Y-96800499D01*
X98233497Y-96769737D01*
X98379179Y-96709394D01*
X98510289Y-96621789D01*
X98621789Y-96510289D01*
X98709394Y-96379179D01*
X98769737Y-96233497D01*
X98800500Y-96078842D01*
X98800500Y-95921158D01*
X98800500Y-95921155D01*
X98800499Y-95921153D01*
X98769738Y-95766510D01*
X98769737Y-95766503D01*
X98769735Y-95766498D01*
X98709397Y-95620827D01*
X98709390Y-95620814D01*
X98621789Y-95489711D01*
X98621786Y-95489707D01*
X98510292Y-95378213D01*
X98510288Y-95378210D01*
X98379185Y-95290609D01*
X98379172Y-95290602D01*
X98233501Y-95230264D01*
X98233489Y-95230261D01*
X98078845Y-95199500D01*
X98078842Y-95199500D01*
X97921158Y-95199500D01*
X97921155Y-95199500D01*
X97766510Y-95230261D01*
X97766498Y-95230264D01*
X97620827Y-95290602D01*
X97620814Y-95290609D01*
X97489711Y-95378210D01*
X97489707Y-95378213D01*
X97378213Y-95489707D01*
X97378210Y-95489711D01*
X97290609Y-95620814D01*
X97290602Y-95620827D01*
X97230264Y-95766498D01*
X97230261Y-95766510D01*
X97199500Y-95921153D01*
X90300499Y-95921153D01*
X90269738Y-95766510D01*
X90269737Y-95766503D01*
X90269735Y-95766498D01*
X90209397Y-95620827D01*
X90209390Y-95620814D01*
X90121789Y-95489711D01*
X90121786Y-95489707D01*
X90010292Y-95378213D01*
X90010288Y-95378210D01*
X89879185Y-95290609D01*
X89879172Y-95290602D01*
X89733501Y-95230264D01*
X89733489Y-95230261D01*
X89578845Y-95199500D01*
X89578842Y-95199500D01*
X89421158Y-95199500D01*
X89421155Y-95199500D01*
X89266510Y-95230261D01*
X89266498Y-95230264D01*
X89120827Y-95290602D01*
X89120814Y-95290609D01*
X88989711Y-95378210D01*
X88989707Y-95378213D01*
X88878213Y-95489707D01*
X88878210Y-95489711D01*
X88790609Y-95620814D01*
X88790602Y-95620827D01*
X88730264Y-95766498D01*
X88730261Y-95766510D01*
X88699500Y-95921153D01*
X78500500Y-95921153D01*
X78500500Y-92921153D01*
X100699500Y-92921153D01*
X100699500Y-93078846D01*
X100730261Y-93233489D01*
X100730264Y-93233501D01*
X100790602Y-93379172D01*
X100790609Y-93379185D01*
X100878210Y-93510288D01*
X100878213Y-93510292D01*
X100989707Y-93621786D01*
X100989711Y-93621789D01*
X101120814Y-93709390D01*
X101120827Y-93709397D01*
X101266498Y-93769735D01*
X101266503Y-93769737D01*
X101421153Y-93800499D01*
X101421156Y-93800500D01*
X101421158Y-93800500D01*
X101578844Y-93800500D01*
X101578845Y-93800499D01*
X101733497Y-93769737D01*
X101879179Y-93709394D01*
X102010289Y-93621789D01*
X102121789Y-93510289D01*
X102209394Y-93379179D01*
X102269737Y-93233497D01*
X102300500Y-93078842D01*
X102300500Y-92921158D01*
X102300500Y-92921155D01*
X102300499Y-92921153D01*
X102269738Y-92766510D01*
X102269737Y-92766503D01*
X102269735Y-92766498D01*
X102209397Y-92620827D01*
X102209390Y-92620814D01*
X102121789Y-92489711D01*
X102121786Y-92489707D01*
X102010292Y-92378213D01*
X102010288Y-92378210D01*
X101879185Y-92290609D01*
X101879172Y-92290602D01*
X101733501Y-92230264D01*
X101733489Y-92230261D01*
X101578845Y-92199500D01*
X101578842Y-92199500D01*
X101421158Y-92199500D01*
X101421155Y-92199500D01*
X101266510Y-92230261D01*
X101266498Y-92230264D01*
X101120827Y-92290602D01*
X101120814Y-92290609D01*
X100989711Y-92378210D01*
X100989707Y-92378213D01*
X100878213Y-92489707D01*
X100878210Y-92489711D01*
X100790609Y-92620814D01*
X100790602Y-92620827D01*
X100730264Y-92766498D01*
X100730261Y-92766510D01*
X100699500Y-92921153D01*
X78500500Y-92921153D01*
X78500500Y-87148543D01*
X87789499Y-87148543D01*
X87827947Y-87341829D01*
X87827950Y-87341839D01*
X87903364Y-87523907D01*
X87903371Y-87523920D01*
X88012860Y-87687781D01*
X88012863Y-87687785D01*
X88152214Y-87827136D01*
X88152218Y-87827139D01*
X88316079Y-87936628D01*
X88316092Y-87936635D01*
X88498160Y-88012049D01*
X88498165Y-88012051D01*
X88498169Y-88012051D01*
X88498170Y-88012052D01*
X88691456Y-88050500D01*
X88691459Y-88050500D01*
X88888543Y-88050500D01*
X89018582Y-88024632D01*
X89081835Y-88012051D01*
X89263914Y-87936632D01*
X89427782Y-87827139D01*
X89567139Y-87687782D01*
X89676632Y-87523914D01*
X89752051Y-87341835D01*
X89790500Y-87148541D01*
X89790500Y-86631333D01*
X89810185Y-86564294D01*
X89862989Y-86518539D01*
X89932147Y-86508595D01*
X89976501Y-86523947D01*
X89997859Y-86536278D01*
X89997860Y-86536278D01*
X89997865Y-86536281D01*
X90144234Y-86575500D01*
X90144236Y-86575500D01*
X90295764Y-86575500D01*
X90295766Y-86575500D01*
X90442135Y-86536281D01*
X90573365Y-86460515D01*
X90680515Y-86353365D01*
X90756281Y-86222135D01*
X90795500Y-86075766D01*
X90795500Y-85924234D01*
X95424500Y-85924234D01*
X95424500Y-86075765D01*
X95463719Y-86222136D01*
X95501602Y-86287750D01*
X95539485Y-86353365D01*
X95646635Y-86460515D01*
X95729912Y-86508595D01*
X95777861Y-86536279D01*
X95777865Y-86536281D01*
X95924234Y-86575500D01*
X95924236Y-86575500D01*
X96075764Y-86575500D01*
X96075766Y-86575500D01*
X96222135Y-86536281D01*
X96232451Y-86530325D01*
X96243499Y-86523947D01*
X96311398Y-86507473D01*
X96377426Y-86530325D01*
X96420617Y-86585245D01*
X96429500Y-86631333D01*
X96429500Y-87148541D01*
X96429500Y-87148543D01*
X96429499Y-87148543D01*
X96467947Y-87341829D01*
X96467950Y-87341839D01*
X96543364Y-87523907D01*
X96543371Y-87523920D01*
X96652860Y-87687781D01*
X96652863Y-87687785D01*
X96792214Y-87827136D01*
X96792218Y-87827139D01*
X96956079Y-87936628D01*
X96956092Y-87936635D01*
X97138160Y-88012049D01*
X97138165Y-88012051D01*
X97138169Y-88012051D01*
X97138170Y-88012052D01*
X97331456Y-88050500D01*
X97331459Y-88050500D01*
X97528543Y-88050500D01*
X97658582Y-88024632D01*
X97721835Y-88012051D01*
X97903914Y-87936632D01*
X98067782Y-87827139D01*
X98207139Y-87687782D01*
X98316632Y-87523914D01*
X98392051Y-87341835D01*
X98430500Y-87148541D01*
X98430500Y-85851459D01*
X98430500Y-85851456D01*
X98392052Y-85658170D01*
X98392051Y-85658169D01*
X98392051Y-85658165D01*
X98387274Y-85646632D01*
X98316635Y-85476092D01*
X98316628Y-85476079D01*
X98207139Y-85312218D01*
X98207136Y-85312214D01*
X98067785Y-85172863D01*
X98067781Y-85172860D01*
X97903920Y-85063371D01*
X97903907Y-85063364D01*
X97721839Y-84987950D01*
X97721829Y-84987947D01*
X97528543Y-84949500D01*
X97528541Y-84949500D01*
X97331459Y-84949500D01*
X97331457Y-84949500D01*
X97138170Y-84987947D01*
X97138160Y-84987950D01*
X96956092Y-85063364D01*
X96956079Y-85063371D01*
X96792218Y-85172860D01*
X96792214Y-85172863D01*
X96652863Y-85312214D01*
X96652860Y-85312218D01*
X96543371Y-85476079D01*
X96543363Y-85476094D01*
X96539456Y-85485528D01*
X96495615Y-85539931D01*
X96429320Y-85561995D01*
X96361621Y-85544715D01*
X96356968Y-85541566D01*
X96353366Y-85539486D01*
X96353365Y-85539485D01*
X96259899Y-85485522D01*
X96222136Y-85463719D01*
X96148950Y-85444109D01*
X96075766Y-85424500D01*
X95924234Y-85424500D01*
X95777863Y-85463719D01*
X95646635Y-85539485D01*
X95646632Y-85539487D01*
X95539487Y-85646632D01*
X95539485Y-85646635D01*
X95463719Y-85777863D01*
X95424500Y-85924234D01*
X90795500Y-85924234D01*
X90756281Y-85777865D01*
X90680515Y-85646635D01*
X90573365Y-85539485D01*
X90502838Y-85498766D01*
X90442136Y-85463719D01*
X90368950Y-85444109D01*
X90295766Y-85424500D01*
X90144234Y-85424500D01*
X89997863Y-85463719D01*
X89906428Y-85516510D01*
X89866635Y-85539485D01*
X89866633Y-85539486D01*
X89859597Y-85543549D01*
X89858254Y-85541224D01*
X89805391Y-85561647D01*
X89736949Y-85547592D01*
X89686971Y-85498766D01*
X89680540Y-85485522D01*
X89676632Y-85476087D01*
X89676628Y-85476079D01*
X89567139Y-85312218D01*
X89567136Y-85312214D01*
X89427785Y-85172863D01*
X89427781Y-85172860D01*
X89263920Y-85063371D01*
X89263907Y-85063364D01*
X89081839Y-84987950D01*
X89081829Y-84987947D01*
X88888543Y-84949500D01*
X88888541Y-84949500D01*
X88691459Y-84949500D01*
X88691457Y-84949500D01*
X88498170Y-84987947D01*
X88498160Y-84987950D01*
X88316092Y-85063364D01*
X88316079Y-85063371D01*
X88152218Y-85172860D01*
X88152214Y-85172863D01*
X88012863Y-85312214D01*
X88012860Y-85312218D01*
X87903371Y-85476079D01*
X87903364Y-85476092D01*
X87827950Y-85658160D01*
X87827947Y-85658170D01*
X87789500Y-85851456D01*
X87789500Y-85851459D01*
X87789500Y-87148541D01*
X87789500Y-87148543D01*
X87789499Y-87148543D01*
X78500500Y-87148543D01*
X78500500Y-82818543D01*
X87789499Y-82818543D01*
X87827947Y-83011829D01*
X87827950Y-83011839D01*
X87903364Y-83193907D01*
X87903371Y-83193920D01*
X88012860Y-83357781D01*
X88012863Y-83357785D01*
X88152214Y-83497136D01*
X88152218Y-83497139D01*
X88316079Y-83606628D01*
X88316092Y-83606635D01*
X88498160Y-83682049D01*
X88498165Y-83682051D01*
X88498169Y-83682051D01*
X88498170Y-83682052D01*
X88691456Y-83720500D01*
X88691459Y-83720500D01*
X88888543Y-83720500D01*
X89018582Y-83694632D01*
X89081835Y-83682051D01*
X89263914Y-83606632D01*
X89427782Y-83497139D01*
X89567139Y-83357782D01*
X89676632Y-83193914D01*
X89752051Y-83011835D01*
X89790500Y-82818543D01*
X96429499Y-82818543D01*
X96467947Y-83011829D01*
X96467950Y-83011839D01*
X96543364Y-83193907D01*
X96543371Y-83193920D01*
X96652860Y-83357781D01*
X96652863Y-83357785D01*
X96792214Y-83497136D01*
X96792218Y-83497139D01*
X96956079Y-83606628D01*
X96956092Y-83606635D01*
X97138160Y-83682049D01*
X97138165Y-83682051D01*
X97138169Y-83682051D01*
X97138170Y-83682052D01*
X97331456Y-83720500D01*
X97331459Y-83720500D01*
X97528543Y-83720500D01*
X97658582Y-83694632D01*
X97721835Y-83682051D01*
X97903914Y-83606632D01*
X98067782Y-83497139D01*
X98207139Y-83357782D01*
X98316632Y-83193914D01*
X98392051Y-83011835D01*
X98430500Y-82818541D01*
X98430500Y-81821459D01*
X98430500Y-81821456D01*
X98392052Y-81628170D01*
X98392051Y-81628169D01*
X98392051Y-81628165D01*
X98374674Y-81586212D01*
X98316635Y-81446092D01*
X98316628Y-81446079D01*
X98207139Y-81282218D01*
X98207136Y-81282214D01*
X98067785Y-81142863D01*
X98067781Y-81142860D01*
X97903920Y-81033371D01*
X97903907Y-81033364D01*
X97721839Y-80957950D01*
X97721829Y-80957947D01*
X97528543Y-80919500D01*
X97528541Y-80919500D01*
X97331459Y-80919500D01*
X97331457Y-80919500D01*
X97138170Y-80957947D01*
X97138160Y-80957950D01*
X96956092Y-81033364D01*
X96956079Y-81033371D01*
X96792218Y-81142860D01*
X96792214Y-81142863D01*
X96652863Y-81282214D01*
X96652860Y-81282218D01*
X96543371Y-81446079D01*
X96543364Y-81446092D01*
X96467950Y-81628160D01*
X96467947Y-81628170D01*
X96429500Y-81821456D01*
X96429500Y-81821459D01*
X96429500Y-82818541D01*
X96429500Y-82818543D01*
X96429499Y-82818543D01*
X89790500Y-82818543D01*
X89790500Y-82818541D01*
X89790500Y-81821459D01*
X89790500Y-81821456D01*
X89752052Y-81628170D01*
X89752051Y-81628169D01*
X89752051Y-81628165D01*
X89734674Y-81586212D01*
X89676635Y-81446092D01*
X89676628Y-81446079D01*
X89567139Y-81282218D01*
X89567136Y-81282214D01*
X89427785Y-81142863D01*
X89427781Y-81142860D01*
X89263920Y-81033371D01*
X89263907Y-81033364D01*
X89081839Y-80957950D01*
X89081829Y-80957947D01*
X88888543Y-80919500D01*
X88888541Y-80919500D01*
X88691459Y-80919500D01*
X88691457Y-80919500D01*
X88498170Y-80957947D01*
X88498160Y-80957950D01*
X88316092Y-81033364D01*
X88316079Y-81033371D01*
X88152218Y-81142860D01*
X88152214Y-81142863D01*
X88012863Y-81282214D01*
X88012860Y-81282218D01*
X87903371Y-81446079D01*
X87903364Y-81446092D01*
X87827950Y-81628160D01*
X87827947Y-81628170D01*
X87789500Y-81821456D01*
X87789500Y-81821459D01*
X87789500Y-82818541D01*
X87789500Y-82818543D01*
X87789499Y-82818543D01*
X78500500Y-82818543D01*
X78500500Y-82004427D01*
X78500816Y-81995581D01*
X78514338Y-81806521D01*
X78514338Y-81806520D01*
X78515130Y-81795446D01*
X78517646Y-81777938D01*
X78559356Y-81586199D01*
X78564333Y-81569248D01*
X78632911Y-81385385D01*
X78640259Y-81369298D01*
X78702815Y-81254734D01*
X78734291Y-81197089D01*
X78743845Y-81182221D01*
X78861448Y-81025123D01*
X78873020Y-81011769D01*
X79011769Y-80873020D01*
X79025123Y-80861448D01*
X79182221Y-80743845D01*
X79197089Y-80734291D01*
X79369298Y-80640258D01*
X79385385Y-80632911D01*
X79569248Y-80564333D01*
X79586199Y-80559356D01*
X79777938Y-80517646D01*
X79795436Y-80515130D01*
X79995582Y-80500816D01*
X80004428Y-80500500D01*
X80065892Y-80500500D01*
X105934108Y-80500500D01*
X105995572Y-80500500D01*
X106004418Y-80500816D01*
G37*
%TD.AperFunction*%
%TD*%
M02*
