M48
; DRILL file {KiCad 9.0.5} date 2025-12-02T20:32:23-0600
; FORMAT={-:-/ absolute / metric / decimal}
; #@! TF.CreationDate,2025-12-02T20:32:23-06:00
; #@! TF.GenerationSoftware,Kicad,Pcbnew,9.0.5
; #@! TF.FileFunction,Plated,1,4,PTH
FMAT,2
METRIC
; #@! TA.AperFunction,Plated,PTH,ViaDrill
T1C0.300
; #@! TA.AperFunction,Plated,PTH,ComponentDrill
T2C0.600
; #@! TA.AperFunction,Plated,PTH,ComponentDrill
T3C1.000
%
G90
G05
T1
X79.482Y-106.211
X79.6Y-113.8
X80.5Y-101.5
X80.6Y-112.8
X81.6Y-108.0
X83.0Y-98.0
X83.0Y-109.0
X83.0Y-111.4
X84.0Y-110.0
X85.0Y-98.0
X85.0Y-118.0
X85.5Y-99.5
X86.5Y-102.0
X86.5Y-104.5
X87.0Y-107.0
X87.0Y-108.5
X87.5Y-104.5
X88.0Y-102.0
X88.0Y-109.0
X88.5Y-91.5
X88.5Y-94.5
X88.5Y-99.5
X89.0Y-104.5
X89.0Y-114.5
X89.5Y-96.0
X89.5Y-99.0
X89.5Y-109.0
X89.5Y-111.5
X89.75Y-90.25
X90.0Y-89.0
X90.668Y-98.707
X91.0Y-105.0
X91.0Y-108.0
X92.0Y-102.5
X92.0Y-110.5
X92.0Y-121.5
X93.5Y-105.5
X94.0Y-99.5
X94.0Y-114.5
X94.517Y-106.59
X95.0Y-91.25
X95.0Y-109.0
X95.0Y-110.0
X95.5Y-111.0
X96.0Y-99.0
X96.0Y-101.5
X96.006Y-99.853
X96.5Y-97.5
X96.5Y-102.5
X96.5Y-103.5
X97.0Y-107.5
X97.0Y-111.0
X97.5Y-98.5
X97.5Y-103.5
X98.0Y-96.0
X98.0Y-105.5
X98.0Y-107.5
X99.0Y-88.5
X100.0Y-90.0
X101.0Y-107.0
X101.5Y-93.0
X101.5Y-110.0
X101.5Y-113.5
X101.5Y-116.0
X102.0Y-106.5
X102.5Y-105.5
X104.0Y-102.0
X104.0Y-103.0
X106.0Y-97.0
T3
X100.0Y-118.8
T2
G00X88.79Y-82.72
M15
G01X88.79Y-81.92
M16
G05
G00X88.79Y-87.05
M15
G01X88.79Y-85.95
M16
G05
G00X97.43Y-82.72
M15
G01X97.43Y-81.92
M16
G05
G00X97.43Y-87.05
M15
G01X97.43Y-85.95
M16
G05
M30
