%TF.GenerationSoftware,KiCad,Pcbnew,9.0.5*%
%TF.CreationDate,2025-12-02T20:32:22-06:00*%
%TF.ProjectId,lorapuck,6c6f7261-7075-4636-9b2e-6b696361645f,rev?*%
%TF.SameCoordinates,Original*%
%TF.FileFunction,Copper,L4,Bot*%
%TF.FilePolarity,Positive*%
%FSLAX46Y46*%
G04 Gerber Fmt 4.6, Leading zero omitted, Abs format (unit mm)*
G04 Created by KiCad (PCBNEW 9.0.5) date 2025-12-02 20:32:22*
%MOMM*%
%LPD*%
G01*
G04 APERTURE LIST*
%TA.AperFunction,ComponentPad*%
%ADD10R,1.700000X1.700000*%
%TD*%
%TA.AperFunction,HeatsinkPad*%
%ADD11O,1.000000X2.100000*%
%TD*%
%TA.AperFunction,HeatsinkPad*%
%ADD12O,1.000000X1.800000*%
%TD*%
%TA.AperFunction,ViaPad*%
%ADD13C,0.600000*%
%TD*%
%TA.AperFunction,Conductor*%
%ADD14C,0.200000*%
%TD*%
G04 APERTURE END LIST*
D10*
%TO.P,AE1,1,A*%
%TO.N,Net-(AE1-A)*%
X100000000Y-118800000D03*
%TD*%
D11*
%TO.P,J1,S1,SHIELD*%
%TO.N,Net-(J1-SHIELD)*%
X97430000Y-86500000D03*
D12*
X97430000Y-82320000D03*
D11*
X88790000Y-86500000D03*
D12*
X88790000Y-82320000D03*
%TD*%
D13*
%TO.N,+3V3*%
X89500000Y-111500000D03*
X84000000Y-110000000D03*
X104000000Y-103000000D03*
X91000000Y-105000000D03*
X101500000Y-110000000D03*
X89500000Y-96000000D03*
X83000000Y-111400000D03*
X93500000Y-105500000D03*
X98000000Y-96000000D03*
X94000000Y-114500000D03*
X101500000Y-93000000D03*
X88500000Y-99500000D03*
X92000000Y-102500000D03*
X91000000Y-108000000D03*
%TO.N,Earth*%
X101500000Y-113500000D03*
X88500000Y-91500000D03*
X95000000Y-91250000D03*
X83000000Y-109000000D03*
X102500000Y-105500000D03*
X100000000Y-90000000D03*
X90668478Y-98706569D03*
X104000000Y-102000000D03*
X99000000Y-88500000D03*
X98000000Y-105500000D03*
X88000000Y-109000000D03*
X89750000Y-90250000D03*
X94000000Y-99500000D03*
X90000000Y-89000000D03*
X80600000Y-112800000D03*
X101000000Y-107000000D03*
X102000000Y-106500000D03*
X96500000Y-97500000D03*
X97000000Y-111000000D03*
X89000000Y-114500000D03*
X106000000Y-97000000D03*
X87000000Y-107000000D03*
X80500000Y-101500000D03*
X92000000Y-121500000D03*
X85000000Y-118000000D03*
X79600000Y-113800000D03*
X101500000Y-116000000D03*
X88500000Y-94500000D03*
X87000000Y-108500000D03*
%TO.N,+1V1*%
X89500000Y-109000000D03*
X89000000Y-104500000D03*
%TO.N,/SX_DIO2*%
X97500000Y-98500000D03*
X98000000Y-107500000D03*
%TO.N,/SX_DIO1*%
X96000000Y-99000000D03*
X92000000Y-110500000D03*
%TO.N,/SPI_MISO*%
X95000000Y-109000000D03*
X96000000Y-101500000D03*
%TO.N,/SPI_MOSI*%
X96500000Y-102500000D03*
X95000000Y-110000000D03*
%TO.N,/SX_NSS*%
X97000000Y-107500000D03*
X97500000Y-103500000D03*
%TO.N,/SPI_CLK*%
X96500000Y-103500000D03*
X95500000Y-111000000D03*
%TO.N,/SX_BUSY*%
X94516641Y-106590000D03*
X96006094Y-99852591D03*
%TO.N,/QSPI_SCLK*%
X87500000Y-104500000D03*
X85500000Y-99500000D03*
%TO.N,/QSPI_SD1*%
X86500000Y-104500000D03*
X83000000Y-98000000D03*
%TO.N,/QSPI_SD2*%
X85000000Y-98000000D03*
X86500000Y-102000000D03*
%TO.N,Net-(U6-SCL)*%
X81600000Y-108000000D03*
X79482419Y-106210646D03*
%TO.N,/QSPI_SD3*%
X89500000Y-99000000D03*
X88000000Y-102000000D03*
%TD*%
D14*
%TO.N,+3V3*%
X91000000Y-105000000D02*
X92000000Y-104000000D01*
X92000000Y-104000000D02*
X92000000Y-102500000D01*
%TO.N,+1V1*%
X89000000Y-104500000D02*
X89000000Y-108500000D01*
X89000000Y-108500000D02*
X89500000Y-109000000D01*
%TO.N,/SX_DIO2*%
X98000000Y-107500000D02*
X99000000Y-106500000D01*
X99000000Y-100000000D02*
X97500000Y-98500000D01*
X99000000Y-106500000D02*
X99000000Y-100000000D01*
%TO.N,/SX_DIO1*%
X94500000Y-100500000D02*
X96000000Y-99000000D01*
X92000000Y-110500000D02*
X92000000Y-108000000D01*
X92000000Y-108000000D02*
X94500000Y-105500000D01*
X94500000Y-105500000D02*
X94500000Y-100500000D01*
%TO.N,/SPI_MISO*%
X96000000Y-101500000D02*
X95401000Y-102099000D01*
X95401000Y-108099000D02*
X95000000Y-108500000D01*
X95401000Y-102099000D02*
X95401000Y-108099000D01*
X95000000Y-108500000D02*
X95000000Y-109000000D01*
%TO.N,/SPI_MOSI*%
X95802000Y-103198000D02*
X95802000Y-109198000D01*
X95802000Y-109198000D02*
X95000000Y-110000000D01*
X96500000Y-102500000D02*
X95802000Y-103198000D01*
%TO.N,/SX_NSS*%
X97000000Y-104000000D02*
X97000000Y-107500000D01*
X97500000Y-103500000D02*
X97000000Y-104000000D01*
%TO.N,/SPI_CLK*%
X96399000Y-110101000D02*
X95500000Y-111000000D01*
X96500000Y-103500000D02*
X96399000Y-103601000D01*
X96399000Y-103601000D02*
X96399000Y-110101000D01*
%TO.N,/SX_BUSY*%
X96025971Y-99974029D02*
X96025971Y-99872468D01*
X95000000Y-101000000D02*
X96025971Y-99974029D01*
X94516641Y-106590000D02*
X95000000Y-106106641D01*
X96025971Y-99872468D02*
X96006094Y-99852591D01*
X95000000Y-106106641D02*
X95000000Y-101000000D01*
%TO.N,/QSPI_SCLK*%
X85000000Y-100000000D02*
X85500000Y-99500000D01*
X87500000Y-104500000D02*
X85000000Y-102000000D01*
X85000000Y-102000000D02*
X85000000Y-100000000D01*
%TO.N,/QSPI_SD1*%
X82500000Y-98500000D02*
X83000000Y-98000000D01*
X82500000Y-100500000D02*
X82500000Y-98500000D01*
X86500000Y-104500000D02*
X82500000Y-100500000D01*
%TO.N,/QSPI_SD2*%
X86500000Y-102000000D02*
X86500000Y-99500000D01*
X86500000Y-99500000D02*
X85000000Y-98000000D01*
%TO.N,Net-(U6-SCL)*%
X79482419Y-106210646D02*
X79482419Y-106682419D01*
X80600000Y-107800000D02*
X80800000Y-108000000D01*
X79482419Y-106682419D02*
X80600000Y-107800000D01*
X80800000Y-108000000D02*
X81600000Y-108000000D01*
%TO.N,/QSPI_SD3*%
X89500000Y-100500000D02*
X88000000Y-102000000D01*
X89500000Y-99000000D02*
X89500000Y-100500000D01*
%TD*%
%TA.AperFunction,Conductor*%
%TO.N,Earth*%
G36*
X98358363Y-103911190D02*
G01*
X98395082Y-103970634D01*
X98399500Y-104003439D01*
X98399500Y-106199902D01*
X98379815Y-106266941D01*
X98363181Y-106287583D01*
X97985339Y-106665425D01*
X97969111Y-106674285D01*
X97955897Y-106687216D01*
X97925714Y-106697982D01*
X97924016Y-106698910D01*
X97922696Y-106699190D01*
X97921192Y-106699500D01*
X97921158Y-106699500D01*
X97766503Y-106730263D01*
X97761074Y-106732511D01*
X97749538Y-106734890D01*
X97725772Y-106732930D01*
X97702056Y-106735396D01*
X97691591Y-106730111D01*
X97679905Y-106729148D01*
X97660969Y-106714648D01*
X97639687Y-106703902D01*
X97633740Y-106693799D01*
X97624430Y-106686670D01*
X97616340Y-106664237D01*
X97604245Y-106643689D01*
X97601795Y-106623906D01*
X97600727Y-106620944D01*
X97601182Y-106618955D01*
X97600500Y-106613444D01*
X97600500Y-104397955D01*
X97620185Y-104330916D01*
X97672989Y-104285161D01*
X97700303Y-104276339D01*
X97733497Y-104269737D01*
X97879179Y-104209394D01*
X98010289Y-104121789D01*
X98121789Y-104010289D01*
X98172398Y-103934548D01*
X98226010Y-103889743D01*
X98295335Y-103881036D01*
X98358363Y-103911190D01*
G37*
%TD.AperFunction*%
%TA.AperFunction,Conductor*%
G36*
X106004418Y-80500816D02*
G01*
X106204561Y-80515130D01*
X106222063Y-80517647D01*
X106413797Y-80559355D01*
X106430755Y-80564334D01*
X106614609Y-80632909D01*
X106630701Y-80640259D01*
X106802904Y-80734288D01*
X106817784Y-80743849D01*
X106974867Y-80861441D01*
X106988237Y-80873027D01*
X107126972Y-81011762D01*
X107138558Y-81025132D01*
X107256146Y-81182210D01*
X107265711Y-81197095D01*
X107359740Y-81369298D01*
X107367090Y-81385390D01*
X107435662Y-81569236D01*
X107440646Y-81586212D01*
X107482351Y-81777931D01*
X107484869Y-81795442D01*
X107499184Y-81995580D01*
X107499500Y-82004427D01*
X107499500Y-120995572D01*
X107499184Y-121004418D01*
X107499184Y-121004419D01*
X107484869Y-121204557D01*
X107482351Y-121222068D01*
X107440646Y-121413787D01*
X107435662Y-121430763D01*
X107367090Y-121614609D01*
X107359740Y-121630701D01*
X107265711Y-121802904D01*
X107256146Y-121817789D01*
X107138558Y-121974867D01*
X107126972Y-121988237D01*
X106988237Y-122126972D01*
X106974867Y-122138558D01*
X106817789Y-122256146D01*
X106802904Y-122265711D01*
X106630701Y-122359740D01*
X106614609Y-122367090D01*
X106430763Y-122435662D01*
X106413787Y-122440646D01*
X106222068Y-122482351D01*
X106204557Y-122484869D01*
X106023779Y-122497799D01*
X106004417Y-122499184D01*
X105995572Y-122499500D01*
X80004428Y-122499500D01*
X79995582Y-122499184D01*
X79973622Y-122497613D01*
X79795442Y-122484869D01*
X79777931Y-122482351D01*
X79586212Y-122440646D01*
X79569236Y-122435662D01*
X79385390Y-122367090D01*
X79369298Y-122359740D01*
X79197095Y-122265711D01*
X79182210Y-122256146D01*
X79025132Y-122138558D01*
X79011762Y-122126972D01*
X78873027Y-121988237D01*
X78861441Y-121974867D01*
X78743849Y-121817784D01*
X78734288Y-121802904D01*
X78640259Y-121630701D01*
X78632909Y-121614609D01*
X78572091Y-121451551D01*
X78564334Y-121430755D01*
X78559355Y-121413797D01*
X78517647Y-121222063D01*
X78515130Y-121204556D01*
X78500816Y-121004418D01*
X78500500Y-120995572D01*
X78500500Y-117902135D01*
X98649500Y-117902135D01*
X98649500Y-119697870D01*
X98649501Y-119697876D01*
X98655908Y-119757483D01*
X98706202Y-119892328D01*
X98706206Y-119892335D01*
X98792452Y-120007544D01*
X98792455Y-120007547D01*
X98907664Y-120093793D01*
X98907671Y-120093797D01*
X99042517Y-120144091D01*
X99042516Y-120144091D01*
X99049444Y-120144835D01*
X99102127Y-120150500D01*
X100897872Y-120150499D01*
X100957483Y-120144091D01*
X101092331Y-120093796D01*
X101207546Y-120007546D01*
X101293796Y-119892331D01*
X101344091Y-119757483D01*
X101350500Y-119697873D01*
X101350499Y-117902128D01*
X101344091Y-117842517D01*
X101293796Y-117707669D01*
X101293795Y-117707668D01*
X101293793Y-117707664D01*
X101207547Y-117592455D01*
X101207544Y-117592452D01*
X101092335Y-117506206D01*
X101092328Y-117506202D01*
X100957482Y-117455908D01*
X100957483Y-117455908D01*
X100897883Y-117449501D01*
X100897881Y-117449500D01*
X100897873Y-117449500D01*
X100897864Y-117449500D01*
X99102129Y-117449500D01*
X99102123Y-117449501D01*
X99042516Y-117455908D01*
X98907671Y-117506202D01*
X98907664Y-117506206D01*
X98792455Y-117592452D01*
X98792452Y-117592455D01*
X98706206Y-117707664D01*
X98706202Y-117707671D01*
X98655908Y-117842517D01*
X98649501Y-117902116D01*
X98649501Y-117902123D01*
X98649500Y-117902135D01*
X78500500Y-117902135D01*
X78500500Y-114421153D01*
X93199500Y-114421153D01*
X93199500Y-114578846D01*
X93230261Y-114733489D01*
X93230264Y-114733501D01*
X93290602Y-114879172D01*
X93290609Y-114879185D01*
X93378210Y-115010288D01*
X93378213Y-115010292D01*
X93489707Y-115121786D01*
X93489711Y-115121789D01*
X93620814Y-115209390D01*
X93620827Y-115209397D01*
X93766498Y-115269735D01*
X93766503Y-115269737D01*
X93921153Y-115300499D01*
X93921156Y-115300500D01*
X93921158Y-115300500D01*
X94078844Y-115300500D01*
X94078845Y-115300499D01*
X94233497Y-115269737D01*
X94379179Y-115209394D01*
X94510289Y-115121789D01*
X94621789Y-115010289D01*
X94709394Y-114879179D01*
X94769737Y-114733497D01*
X94800500Y-114578842D01*
X94800500Y-114421158D01*
X94800500Y-114421155D01*
X94800499Y-114421153D01*
X94769738Y-114266510D01*
X94769737Y-114266503D01*
X94769735Y-114266498D01*
X94709397Y-114120827D01*
X94709390Y-114120814D01*
X94621789Y-113989711D01*
X94621786Y-113989707D01*
X94510292Y-113878213D01*
X94510288Y-113878210D01*
X94379185Y-113790609D01*
X94379172Y-113790602D01*
X94233501Y-113730264D01*
X94233489Y-113730261D01*
X94078845Y-113699500D01*
X94078842Y-113699500D01*
X93921158Y-113699500D01*
X93921155Y-113699500D01*
X93766510Y-113730261D01*
X93766498Y-113730264D01*
X93620827Y-113790602D01*
X93620814Y-113790609D01*
X93489711Y-113878210D01*
X93489707Y-113878213D01*
X93378213Y-113989707D01*
X93378210Y-113989711D01*
X93290609Y-114120814D01*
X93290602Y-114120827D01*
X93230264Y-114266498D01*
X93230261Y-114266510D01*
X93199500Y-114421153D01*
X78500500Y-114421153D01*
X78500500Y-111321153D01*
X82199500Y-111321153D01*
X82199500Y-111478846D01*
X82230261Y-111633489D01*
X82230264Y-111633501D01*
X82290602Y-111779172D01*
X82290609Y-111779185D01*
X82378210Y-111910288D01*
X82378213Y-111910292D01*
X82489707Y-112021786D01*
X82489711Y-112021789D01*
X82620814Y-112109390D01*
X82620827Y-112109397D01*
X82766498Y-112169735D01*
X82766503Y-112169737D01*
X82921153Y-112200499D01*
X82921156Y-112200500D01*
X82921158Y-112200500D01*
X83078844Y-112200500D01*
X83078845Y-112200499D01*
X83233497Y-112169737D01*
X83379179Y-112109394D01*
X83510289Y-112021789D01*
X83621789Y-111910289D01*
X83709394Y-111779179D01*
X83769737Y-111633497D01*
X83800500Y-111478842D01*
X83800500Y-111421153D01*
X88699500Y-111421153D01*
X88699500Y-111578846D01*
X88730261Y-111733489D01*
X88730264Y-111733501D01*
X88790602Y-111879172D01*
X88790609Y-111879185D01*
X88878210Y-112010288D01*
X88878213Y-112010292D01*
X88989707Y-112121786D01*
X88989711Y-112121789D01*
X89120814Y-112209390D01*
X89120827Y-112209397D01*
X89266498Y-112269735D01*
X89266503Y-112269737D01*
X89421153Y-112300499D01*
X89421156Y-112300500D01*
X89421158Y-112300500D01*
X89578844Y-112300500D01*
X89578845Y-112300499D01*
X89733497Y-112269737D01*
X89879179Y-112209394D01*
X90010289Y-112121789D01*
X90121789Y-112010289D01*
X90209394Y-111879179D01*
X90269737Y-111733497D01*
X90300500Y-111578842D01*
X90300500Y-111421158D01*
X90300500Y-111421155D01*
X90300499Y-111421153D01*
X90292148Y-111379172D01*
X90269737Y-111266503D01*
X90209794Y-111121786D01*
X90209397Y-111120827D01*
X90209390Y-111120814D01*
X90121789Y-110989711D01*
X90121786Y-110989707D01*
X90010292Y-110878213D01*
X90010288Y-110878210D01*
X89879185Y-110790609D01*
X89879172Y-110790602D01*
X89733501Y-110730264D01*
X89733489Y-110730261D01*
X89578845Y-110699500D01*
X89578842Y-110699500D01*
X89421158Y-110699500D01*
X89421155Y-110699500D01*
X89266510Y-110730261D01*
X89266498Y-110730264D01*
X89120827Y-110790602D01*
X89120814Y-110790609D01*
X88989711Y-110878210D01*
X88989707Y-110878213D01*
X88878213Y-110989707D01*
X88878210Y-110989711D01*
X88790609Y-111120814D01*
X88790602Y-111120827D01*
X88730264Y-111266498D01*
X88730261Y-111266510D01*
X88699500Y-111421153D01*
X83800500Y-111421153D01*
X83800500Y-111321158D01*
X83800500Y-111321155D01*
X83800499Y-111321153D01*
X83778269Y-111209397D01*
X83769737Y-111166503D01*
X83733427Y-111078842D01*
X83709397Y-111020827D01*
X83709387Y-111020809D01*
X83673473Y-110967059D01*
X83652595Y-110900382D01*
X83671080Y-110833002D01*
X83723059Y-110786312D01*
X83792029Y-110775136D01*
X83800751Y-110776549D01*
X83849831Y-110786312D01*
X83921156Y-110800500D01*
X83921158Y-110800500D01*
X84078844Y-110800500D01*
X84078845Y-110800499D01*
X84233497Y-110769737D01*
X84379179Y-110709394D01*
X84510289Y-110621789D01*
X84621789Y-110510289D01*
X84709394Y-110379179D01*
X84769737Y-110233497D01*
X84800500Y-110078842D01*
X84800500Y-109921158D01*
X84800500Y-109921155D01*
X84800499Y-109921153D01*
X84769738Y-109766510D01*
X84769737Y-109766503D01*
X84709794Y-109621786D01*
X84709397Y-109620827D01*
X84709390Y-109620814D01*
X84621789Y-109489711D01*
X84621786Y-109489707D01*
X84510292Y-109378213D01*
X84510288Y-109378210D01*
X84379185Y-109290609D01*
X84379172Y-109290602D01*
X84233501Y-109230264D01*
X84233489Y-109230261D01*
X84078845Y-109199500D01*
X84078842Y-109199500D01*
X83921158Y-109199500D01*
X83921155Y-109199500D01*
X83766510Y-109230261D01*
X83766498Y-109230264D01*
X83620827Y-109290602D01*
X83620814Y-109290609D01*
X83489711Y-109378210D01*
X83489707Y-109378213D01*
X83378213Y-109489707D01*
X83378210Y-109489711D01*
X83290609Y-109620814D01*
X83290602Y-109620827D01*
X83230264Y-109766498D01*
X83230261Y-109766510D01*
X83199500Y-109921153D01*
X83199500Y-110078846D01*
X83230261Y-110233489D01*
X83230264Y-110233501D01*
X83290602Y-110379172D01*
X83290608Y-110379183D01*
X83326527Y-110432940D01*
X83347404Y-110499618D01*
X83328919Y-110566998D01*
X83276940Y-110613687D01*
X83207970Y-110624863D01*
X83199232Y-110623447D01*
X83078844Y-110599500D01*
X83078842Y-110599500D01*
X82921158Y-110599500D01*
X82921155Y-110599500D01*
X82766510Y-110630261D01*
X82766498Y-110630264D01*
X82620827Y-110690602D01*
X82620814Y-110690609D01*
X82489711Y-110778210D01*
X82489707Y-110778213D01*
X82378213Y-110889707D01*
X82378210Y-110889711D01*
X82290609Y-111020814D01*
X82290602Y-111020827D01*
X82230264Y-111166498D01*
X82230261Y-111166510D01*
X82199500Y-111321153D01*
X78500500Y-111321153D01*
X78500500Y-106555280D01*
X78520185Y-106488241D01*
X78572989Y-106442486D01*
X78642147Y-106432542D01*
X78705703Y-106461567D01*
X78739061Y-106507828D01*
X78773021Y-106589819D01*
X78773028Y-106589831D01*
X78863316Y-106724955D01*
X78864065Y-106725541D01*
X78871146Y-106740513D01*
X78880328Y-106756864D01*
X78881918Y-106761415D01*
X78881918Y-106761476D01*
X78922842Y-106914204D01*
X78948541Y-106958716D01*
X78954369Y-106968810D01*
X78954370Y-106968813D01*
X79001896Y-107051131D01*
X79001900Y-107051136D01*
X79120768Y-107170004D01*
X79120774Y-107170009D01*
X80119481Y-108168716D01*
X80431284Y-108480520D01*
X80431286Y-108480521D01*
X80431290Y-108480524D01*
X80555575Y-108552279D01*
X80568216Y-108559577D01*
X80720943Y-108600501D01*
X80720945Y-108600501D01*
X80886654Y-108600501D01*
X80886670Y-108600500D01*
X81020234Y-108600500D01*
X81087273Y-108620185D01*
X81089125Y-108621398D01*
X81220814Y-108709390D01*
X81220827Y-108709397D01*
X81366498Y-108769735D01*
X81366503Y-108769737D01*
X81496982Y-108795691D01*
X81521153Y-108800499D01*
X81521156Y-108800500D01*
X81521158Y-108800500D01*
X81678844Y-108800500D01*
X81678845Y-108800499D01*
X81833497Y-108769737D01*
X81979179Y-108709394D01*
X82110289Y-108621789D01*
X82221789Y-108510289D01*
X82309394Y-108379179D01*
X82369737Y-108233497D01*
X82400500Y-108078842D01*
X82400500Y-107921158D01*
X82400500Y-107921155D01*
X82400499Y-107921153D01*
X82369738Y-107766510D01*
X82369737Y-107766503D01*
X82356062Y-107733489D01*
X82309397Y-107620827D01*
X82309390Y-107620814D01*
X82221789Y-107489711D01*
X82221786Y-107489707D01*
X82110292Y-107378213D01*
X82110288Y-107378210D01*
X81979185Y-107290609D01*
X81979172Y-107290602D01*
X81833501Y-107230264D01*
X81833489Y-107230261D01*
X81678845Y-107199500D01*
X81678842Y-107199500D01*
X81521158Y-107199500D01*
X81521155Y-107199500D01*
X81366510Y-107230261D01*
X81366498Y-107230264D01*
X81220827Y-107290602D01*
X81220809Y-107290612D01*
X81136998Y-107346613D01*
X81070321Y-107367491D01*
X81002941Y-107349006D01*
X80980427Y-107331192D01*
X80264237Y-106615002D01*
X80230752Y-106553679D01*
X80235736Y-106483987D01*
X80237337Y-106479916D01*
X80252156Y-106444143D01*
X80282919Y-106289488D01*
X80282919Y-106131804D01*
X80282919Y-106131801D01*
X80282918Y-106131799D01*
X80267391Y-106053740D01*
X80252156Y-105977149D01*
X80225777Y-105913463D01*
X80191816Y-105831473D01*
X80191809Y-105831460D01*
X80104208Y-105700357D01*
X80104205Y-105700353D01*
X79992711Y-105588859D01*
X79992707Y-105588856D01*
X79861604Y-105501255D01*
X79861591Y-105501248D01*
X79715920Y-105440910D01*
X79715908Y-105440907D01*
X79561264Y-105410146D01*
X79561261Y-105410146D01*
X79403577Y-105410146D01*
X79403574Y-105410146D01*
X79248929Y-105440907D01*
X79248917Y-105440910D01*
X79103246Y-105501248D01*
X79103233Y-105501255D01*
X78972130Y-105588856D01*
X78972126Y-105588859D01*
X78860632Y-105700353D01*
X78860629Y-105700357D01*
X78773028Y-105831460D01*
X78773021Y-105831473D01*
X78739061Y-105913463D01*
X78695220Y-105967867D01*
X78628926Y-105989932D01*
X78561227Y-105972653D01*
X78513616Y-105921516D01*
X78500500Y-105866011D01*
X78500500Y-100579054D01*
X81899498Y-100579054D01*
X81940424Y-100731789D01*
X81940425Y-100731790D01*
X81961455Y-100768214D01*
X81961456Y-100768216D01*
X82019475Y-100868709D01*
X82019481Y-100868717D01*
X82138349Y-100987585D01*
X82138355Y-100987590D01*
X85665425Y-104514660D01*
X85698910Y-104575983D01*
X85699361Y-104578149D01*
X85730261Y-104733491D01*
X85730264Y-104733501D01*
X85790602Y-104879172D01*
X85790609Y-104879185D01*
X85878210Y-105010288D01*
X85878213Y-105010292D01*
X85989707Y-105121786D01*
X85989711Y-105121789D01*
X86120814Y-105209390D01*
X86120827Y-105209397D01*
X86258683Y-105266498D01*
X86266503Y-105269737D01*
X86421153Y-105300499D01*
X86421156Y-105300500D01*
X86421158Y-105300500D01*
X86578844Y-105300500D01*
X86578845Y-105300499D01*
X86733497Y-105269737D01*
X86879179Y-105209394D01*
X86931110Y-105174694D01*
X86997785Y-105153816D01*
X87065165Y-105172300D01*
X87068863Y-105174676D01*
X87120821Y-105209394D01*
X87120823Y-105209395D01*
X87120825Y-105209396D01*
X87258683Y-105266498D01*
X87266503Y-105269737D01*
X87421153Y-105300499D01*
X87421156Y-105300500D01*
X87421158Y-105300500D01*
X87578844Y-105300500D01*
X87578845Y-105300499D01*
X87733497Y-105269737D01*
X87879179Y-105209394D01*
X88010289Y-105121789D01*
X88121789Y-105010289D01*
X88135539Y-104989711D01*
X88146898Y-104972712D01*
X88172066Y-104951677D01*
X88196483Y-104929745D01*
X88198748Y-104929377D01*
X88200510Y-104927906D01*
X88233065Y-104923817D01*
X88265453Y-104918569D01*
X88267557Y-104919485D01*
X88269835Y-104919199D01*
X88299429Y-104933357D01*
X88329517Y-104946454D01*
X88331562Y-104948731D01*
X88332862Y-104949353D01*
X88353102Y-104972711D01*
X88378602Y-105010874D01*
X88399480Y-105077551D01*
X88399500Y-105079765D01*
X88399500Y-108413330D01*
X88399499Y-108413348D01*
X88399499Y-108579054D01*
X88399498Y-108579054D01*
X88399499Y-108579057D01*
X88440423Y-108731785D01*
X88460468Y-108766503D01*
X88480096Y-108800500D01*
X88519479Y-108868715D01*
X88631284Y-108980520D01*
X88665425Y-109014660D01*
X88698911Y-109075983D01*
X88699362Y-109078151D01*
X88730261Y-109233491D01*
X88730264Y-109233501D01*
X88790602Y-109379172D01*
X88790609Y-109379185D01*
X88878210Y-109510288D01*
X88878213Y-109510292D01*
X88989707Y-109621786D01*
X88989711Y-109621789D01*
X89120814Y-109709390D01*
X89120827Y-109709397D01*
X89258683Y-109766498D01*
X89266503Y-109769737D01*
X89421153Y-109800499D01*
X89421156Y-109800500D01*
X89421158Y-109800500D01*
X89578844Y-109800500D01*
X89578845Y-109800499D01*
X89733497Y-109769737D01*
X89879179Y-109709394D01*
X90010289Y-109621789D01*
X90121789Y-109510289D01*
X90209394Y-109379179D01*
X90269737Y-109233497D01*
X90300500Y-109078842D01*
X90300500Y-108921158D01*
X90300500Y-108921155D01*
X90300499Y-108921153D01*
X90293617Y-108886555D01*
X90269737Y-108766503D01*
X90250424Y-108719879D01*
X90242956Y-108650410D01*
X90274231Y-108587931D01*
X90334320Y-108552279D01*
X90404145Y-108554773D01*
X90452667Y-108584746D01*
X90489707Y-108621786D01*
X90489711Y-108621789D01*
X90620814Y-108709390D01*
X90620827Y-108709397D01*
X90766498Y-108769735D01*
X90766503Y-108769737D01*
X90896982Y-108795691D01*
X90921153Y-108800499D01*
X90921156Y-108800500D01*
X90921158Y-108800500D01*
X91078844Y-108800500D01*
X91078845Y-108800499D01*
X91233497Y-108769737D01*
X91233509Y-108769731D01*
X91239324Y-108767969D01*
X91240158Y-108770720D01*
X91297359Y-108764497D01*
X91359878Y-108795691D01*
X91395608Y-108855734D01*
X91399500Y-108886555D01*
X91399500Y-109920234D01*
X91379815Y-109987273D01*
X91378602Y-109989125D01*
X91290609Y-110120814D01*
X91290602Y-110120827D01*
X91230264Y-110266498D01*
X91230261Y-110266510D01*
X91199500Y-110421153D01*
X91199500Y-110578846D01*
X91230261Y-110733489D01*
X91230264Y-110733501D01*
X91290602Y-110879172D01*
X91290609Y-110879185D01*
X91378210Y-111010288D01*
X91378213Y-111010292D01*
X91489707Y-111121786D01*
X91489711Y-111121789D01*
X91620814Y-111209390D01*
X91620827Y-111209397D01*
X91758683Y-111266498D01*
X91766503Y-111269737D01*
X91921153Y-111300499D01*
X91921156Y-111300500D01*
X91921158Y-111300500D01*
X92078844Y-111300500D01*
X92078845Y-111300499D01*
X92233497Y-111269737D01*
X92379179Y-111209394D01*
X92510289Y-111121789D01*
X92621789Y-111010289D01*
X92709394Y-110879179D01*
X92769737Y-110733497D01*
X92800500Y-110578842D01*
X92800500Y-110421158D01*
X92800500Y-110421155D01*
X92800499Y-110421153D01*
X92792151Y-110379185D01*
X92769737Y-110266503D01*
X92756062Y-110233489D01*
X92709397Y-110120827D01*
X92709390Y-110120814D01*
X92621398Y-109989125D01*
X92600520Y-109922447D01*
X92600500Y-109920234D01*
X92600500Y-108300096D01*
X92620185Y-108233057D01*
X92636814Y-108212419D01*
X93734217Y-107115016D01*
X93795540Y-107081532D01*
X93865232Y-107086516D01*
X93909579Y-107115017D01*
X94006348Y-107211786D01*
X94006352Y-107211789D01*
X94137455Y-107299390D01*
X94137468Y-107299397D01*
X94257237Y-107349006D01*
X94283144Y-107359737D01*
X94437794Y-107390499D01*
X94437797Y-107390500D01*
X94437799Y-107390500D01*
X94595485Y-107390500D01*
X94652308Y-107379197D01*
X94721900Y-107385424D01*
X94777077Y-107428287D01*
X94800322Y-107494176D01*
X94800500Y-107500814D01*
X94800500Y-107798901D01*
X94780815Y-107865940D01*
X94764181Y-107886582D01*
X94624214Y-108026548D01*
X94624215Y-108026549D01*
X94519478Y-108131285D01*
X94494417Y-108174695D01*
X94480096Y-108199500D01*
X94440423Y-108268215D01*
X94431772Y-108300500D01*
X94399498Y-108420945D01*
X94398438Y-108429003D01*
X94396980Y-108428811D01*
X94379814Y-108487274D01*
X94378601Y-108489126D01*
X94290609Y-108620814D01*
X94290602Y-108620827D01*
X94230264Y-108766498D01*
X94230261Y-108766510D01*
X94199500Y-108921153D01*
X94199500Y-109078846D01*
X94230261Y-109233489D01*
X94230264Y-109233501D01*
X94290602Y-109379172D01*
X94290609Y-109379185D01*
X94325304Y-109431109D01*
X94346182Y-109497786D01*
X94327698Y-109565167D01*
X94325304Y-109568891D01*
X94290609Y-109620814D01*
X94290602Y-109620827D01*
X94230264Y-109766498D01*
X94230261Y-109766510D01*
X94199500Y-109921153D01*
X94199500Y-110078846D01*
X94230261Y-110233489D01*
X94230264Y-110233501D01*
X94290602Y-110379172D01*
X94290609Y-110379185D01*
X94378210Y-110510288D01*
X94378213Y-110510292D01*
X94489707Y-110621786D01*
X94489711Y-110621789D01*
X94620817Y-110709392D01*
X94620819Y-110709393D01*
X94620821Y-110709394D01*
X94638409Y-110716679D01*
X94692812Y-110760520D01*
X94714877Y-110826814D01*
X94712573Y-110855431D01*
X94699500Y-110921153D01*
X94699500Y-111078846D01*
X94730261Y-111233489D01*
X94730264Y-111233501D01*
X94790602Y-111379172D01*
X94790609Y-111379185D01*
X94878210Y-111510288D01*
X94878213Y-111510292D01*
X94989707Y-111621786D01*
X94989711Y-111621789D01*
X95120814Y-111709390D01*
X95120827Y-111709397D01*
X95266498Y-111769735D01*
X95266503Y-111769737D01*
X95421153Y-111800499D01*
X95421156Y-111800500D01*
X95421158Y-111800500D01*
X95578844Y-111800500D01*
X95578845Y-111800499D01*
X95733497Y-111769737D01*
X95879179Y-111709394D01*
X96010289Y-111621789D01*
X96121789Y-111510289D01*
X96209394Y-111379179D01*
X96269737Y-111233497D01*
X96292151Y-111120814D01*
X96300638Y-111078150D01*
X96333023Y-111016239D01*
X96334522Y-111014712D01*
X96757506Y-110591727D01*
X96757511Y-110591724D01*
X96767714Y-110581520D01*
X96767716Y-110581520D01*
X96879520Y-110469716D01*
X96948926Y-110349500D01*
X96958577Y-110332785D01*
X96999501Y-110180057D01*
X96999501Y-110021943D01*
X96999501Y-110014348D01*
X96999500Y-110014330D01*
X96999500Y-109921153D01*
X100699500Y-109921153D01*
X100699500Y-110078846D01*
X100730261Y-110233489D01*
X100730264Y-110233501D01*
X100790602Y-110379172D01*
X100790609Y-110379185D01*
X100878210Y-110510288D01*
X100878213Y-110510292D01*
X100989707Y-110621786D01*
X100989711Y-110621789D01*
X101120814Y-110709390D01*
X101120827Y-110709397D01*
X101234425Y-110756450D01*
X101266503Y-110769737D01*
X101421153Y-110800499D01*
X101421156Y-110800500D01*
X101421158Y-110800500D01*
X101578844Y-110800500D01*
X101578845Y-110800499D01*
X101733497Y-110769737D01*
X101879179Y-110709394D01*
X102010289Y-110621789D01*
X102121789Y-110510289D01*
X102209394Y-110379179D01*
X102269737Y-110233497D01*
X102300500Y-110078842D01*
X102300500Y-109921158D01*
X102300500Y-109921155D01*
X102300499Y-109921153D01*
X102269738Y-109766510D01*
X102269737Y-109766503D01*
X102209794Y-109621786D01*
X102209397Y-109620827D01*
X102209390Y-109620814D01*
X102121789Y-109489711D01*
X102121786Y-109489707D01*
X102010292Y-109378213D01*
X102010288Y-109378210D01*
X101879185Y-109290609D01*
X101879172Y-109290602D01*
X101733501Y-109230264D01*
X101733489Y-109230261D01*
X101578845Y-109199500D01*
X101578842Y-109199500D01*
X101421158Y-109199500D01*
X101421155Y-109199500D01*
X101266510Y-109230261D01*
X101266498Y-109230264D01*
X101120827Y-109290602D01*
X101120814Y-109290609D01*
X100989711Y-109378210D01*
X100989707Y-109378213D01*
X100878213Y-109489707D01*
X100878210Y-109489711D01*
X100790609Y-109620814D01*
X100790602Y-109620827D01*
X100730264Y-109766498D01*
X100730261Y-109766510D01*
X100699500Y-109921153D01*
X96999500Y-109921153D01*
X96999500Y-108418046D01*
X97019185Y-108351007D01*
X97071989Y-108305252D01*
X97099309Y-108296429D01*
X97128848Y-108290552D01*
X97233497Y-108269737D01*
X97379179Y-108209394D01*
X97431110Y-108174694D01*
X97497785Y-108153816D01*
X97565165Y-108172300D01*
X97568863Y-108174676D01*
X97620821Y-108209394D01*
X97620823Y-108209395D01*
X97620825Y-108209396D01*
X97766498Y-108269735D01*
X97766503Y-108269737D01*
X97900692Y-108296429D01*
X97921153Y-108300499D01*
X97921156Y-108300500D01*
X97921158Y-108300500D01*
X98078844Y-108300500D01*
X98078845Y-108300499D01*
X98233497Y-108269737D01*
X98379179Y-108209394D01*
X98510289Y-108121789D01*
X98621789Y-108010289D01*
X98709394Y-107879179D01*
X98769737Y-107733497D01*
X98800500Y-107578842D01*
X98800638Y-107578150D01*
X98833023Y-107516239D01*
X98834515Y-107514719D01*
X99480520Y-106868716D01*
X99559577Y-106731784D01*
X99600501Y-106579057D01*
X99600501Y-106420942D01*
X99600501Y-106413347D01*
X99600500Y-106413329D01*
X99600500Y-102921153D01*
X103199500Y-102921153D01*
X103199500Y-103078846D01*
X103230261Y-103233489D01*
X103230264Y-103233501D01*
X103290602Y-103379172D01*
X103290609Y-103379185D01*
X103378210Y-103510288D01*
X103378213Y-103510292D01*
X103489707Y-103621786D01*
X103489711Y-103621789D01*
X103620814Y-103709390D01*
X103620827Y-103709397D01*
X103759753Y-103766941D01*
X103766503Y-103769737D01*
X103921153Y-103800499D01*
X103921156Y-103800500D01*
X103921158Y-103800500D01*
X104078844Y-103800500D01*
X104078845Y-103800499D01*
X104233497Y-103769737D01*
X104379179Y-103709394D01*
X104510289Y-103621789D01*
X104621789Y-103510289D01*
X104709394Y-103379179D01*
X104769737Y-103233497D01*
X104800500Y-103078842D01*
X104800500Y-102921158D01*
X104800500Y-102921155D01*
X104800499Y-102921153D01*
X104774531Y-102790606D01*
X104769737Y-102766503D01*
X104756062Y-102733489D01*
X104709397Y-102620827D01*
X104709390Y-102620814D01*
X104621789Y-102489711D01*
X104621786Y-102489707D01*
X104510292Y-102378213D01*
X104510288Y-102378210D01*
X104379185Y-102290609D01*
X104379172Y-102290602D01*
X104233501Y-102230264D01*
X104233489Y-102230261D01*
X104078845Y-102199500D01*
X104078842Y-102199500D01*
X103921158Y-102199500D01*
X103921155Y-102199500D01*
X103766510Y-102230261D01*
X103766498Y-102230264D01*
X103620827Y-102290602D01*
X103620814Y-102290609D01*
X103489711Y-102378210D01*
X103489707Y-102378213D01*
X103378213Y-102489707D01*
X103378210Y-102489711D01*
X103290609Y-102620814D01*
X103290602Y-102620827D01*
X103230264Y-102766498D01*
X103230261Y-102766510D01*
X103199500Y-102921153D01*
X99600500Y-102921153D01*
X99600500Y-99920946D01*
X99600500Y-99920945D01*
X99600500Y-99920943D01*
X99599352Y-99916660D01*
X99568227Y-99800500D01*
X99559577Y-99768216D01*
X99559576Y-99768214D01*
X99559576Y-99768213D01*
X99480524Y-99631290D01*
X99480521Y-99631286D01*
X99480520Y-99631284D01*
X99368716Y-99519480D01*
X99368715Y-99519479D01*
X99364385Y-99515149D01*
X99364374Y-99515139D01*
X98334574Y-98485339D01*
X98301089Y-98424016D01*
X98300638Y-98421849D01*
X98274531Y-98290606D01*
X98269737Y-98266503D01*
X98256062Y-98233489D01*
X98209397Y-98120827D01*
X98209390Y-98120814D01*
X98121789Y-97989711D01*
X98121786Y-97989707D01*
X98010292Y-97878213D01*
X98010288Y-97878210D01*
X97879185Y-97790609D01*
X97879172Y-97790602D01*
X97733501Y-97730264D01*
X97733489Y-97730261D01*
X97578845Y-97699500D01*
X97578842Y-97699500D01*
X97421158Y-97699500D01*
X97421155Y-97699500D01*
X97266510Y-97730261D01*
X97266498Y-97730264D01*
X97120827Y-97790602D01*
X97120814Y-97790609D01*
X96989711Y-97878210D01*
X96989707Y-97878213D01*
X96878213Y-97989707D01*
X96878210Y-97989711D01*
X96790609Y-98120814D01*
X96790602Y-98120827D01*
X96730264Y-98266498D01*
X96730261Y-98266507D01*
X96720491Y-98315626D01*
X96688105Y-98377536D01*
X96627389Y-98412110D01*
X96557620Y-98408369D01*
X96515303Y-98381704D01*
X96514999Y-98382076D01*
X96512040Y-98379647D01*
X96511193Y-98379114D01*
X96510292Y-98378213D01*
X96510288Y-98378210D01*
X96379185Y-98290609D01*
X96379172Y-98290602D01*
X96233501Y-98230264D01*
X96233489Y-98230261D01*
X96078845Y-98199500D01*
X96078842Y-98199500D01*
X95921158Y-98199500D01*
X95921155Y-98199500D01*
X95766510Y-98230261D01*
X95766498Y-98230264D01*
X95620827Y-98290602D01*
X95620814Y-98290609D01*
X95489711Y-98378210D01*
X95489707Y-98378213D01*
X95378213Y-98489707D01*
X95378210Y-98489711D01*
X95290609Y-98620814D01*
X95290602Y-98620827D01*
X95230264Y-98766498D01*
X95230261Y-98766508D01*
X95199361Y-98921850D01*
X95166976Y-98983761D01*
X95165425Y-98985339D01*
X94019481Y-100131282D01*
X94019479Y-100131285D01*
X93974385Y-100209392D01*
X93974384Y-100209393D01*
X93940423Y-100268214D01*
X93940423Y-100268215D01*
X93899499Y-100420943D01*
X93899499Y-100420945D01*
X93899499Y-100589046D01*
X93899500Y-100589059D01*
X93899500Y-104613444D01*
X93879815Y-104680483D01*
X93827011Y-104726238D01*
X93757853Y-104736182D01*
X93739575Y-104731202D01*
X93739324Y-104732031D01*
X93733500Y-104730264D01*
X93733497Y-104730263D01*
X93733492Y-104730262D01*
X93733489Y-104730261D01*
X93578845Y-104699500D01*
X93578842Y-104699500D01*
X93421158Y-104699500D01*
X93421155Y-104699500D01*
X93266510Y-104730261D01*
X93266498Y-104730264D01*
X93120827Y-104790602D01*
X93120814Y-104790609D01*
X92989711Y-104878210D01*
X92989707Y-104878213D01*
X92878213Y-104989707D01*
X92878210Y-104989711D01*
X92790609Y-105120814D01*
X92790602Y-105120827D01*
X92730264Y-105266498D01*
X92730261Y-105266510D01*
X92699500Y-105421153D01*
X92699500Y-105578846D01*
X92730261Y-105733489D01*
X92730264Y-105733501D01*
X92790602Y-105879172D01*
X92790609Y-105879185D01*
X92878210Y-106010288D01*
X92878213Y-106010292D01*
X92921661Y-106053740D01*
X92955146Y-106115063D01*
X92950162Y-106184755D01*
X92921661Y-106229102D01*
X91729102Y-107421661D01*
X91667779Y-107455146D01*
X91598087Y-107450162D01*
X91553740Y-107421661D01*
X91510292Y-107378213D01*
X91510288Y-107378210D01*
X91379185Y-107290609D01*
X91379172Y-107290602D01*
X91233501Y-107230264D01*
X91233489Y-107230261D01*
X91078845Y-107199500D01*
X91078842Y-107199500D01*
X90921158Y-107199500D01*
X90921155Y-107199500D01*
X90766510Y-107230261D01*
X90766498Y-107230264D01*
X90620827Y-107290602D01*
X90620814Y-107290609D01*
X90489711Y-107378210D01*
X90489707Y-107378213D01*
X90378213Y-107489707D01*
X90378210Y-107489711D01*
X90290609Y-107620814D01*
X90290602Y-107620827D01*
X90230264Y-107766498D01*
X90230261Y-107766510D01*
X90199500Y-107921153D01*
X90199500Y-108078846D01*
X90230175Y-108233057D01*
X90230263Y-108233497D01*
X90249575Y-108280120D01*
X90257043Y-108349590D01*
X90225767Y-108412069D01*
X90165678Y-108447721D01*
X90095853Y-108445226D01*
X90047332Y-108415253D01*
X90010292Y-108378213D01*
X90010288Y-108378210D01*
X89879185Y-108290609D01*
X89879172Y-108290602D01*
X89733501Y-108230264D01*
X89733489Y-108230261D01*
X89700309Y-108223661D01*
X89638398Y-108191276D01*
X89603824Y-108130561D01*
X89600500Y-108102044D01*
X89600500Y-105079765D01*
X89605403Y-105062848D01*
X89605285Y-105045652D01*
X89618918Y-105016225D01*
X89619724Y-105013447D01*
X89621608Y-105010469D01*
X89621789Y-105010289D01*
X89681348Y-104921153D01*
X90199500Y-104921153D01*
X90199500Y-105078846D01*
X90230261Y-105233489D01*
X90230264Y-105233501D01*
X90290602Y-105379172D01*
X90290609Y-105379185D01*
X90378210Y-105510288D01*
X90378213Y-105510292D01*
X90489707Y-105621786D01*
X90489711Y-105621789D01*
X90620814Y-105709390D01*
X90620827Y-105709397D01*
X90766498Y-105769735D01*
X90766503Y-105769737D01*
X90921153Y-105800499D01*
X90921156Y-105800500D01*
X90921158Y-105800500D01*
X91078844Y-105800500D01*
X91078845Y-105800499D01*
X91233497Y-105769737D01*
X91379179Y-105709394D01*
X91510289Y-105621789D01*
X91621789Y-105510289D01*
X91709394Y-105379179D01*
X91769737Y-105233497D01*
X91792151Y-105120814D01*
X91800638Y-105078150D01*
X91833023Y-105016239D01*
X91834515Y-105014719D01*
X92480520Y-104368716D01*
X92559577Y-104231784D01*
X92600501Y-104079057D01*
X92600501Y-103920942D01*
X92600501Y-103913347D01*
X92600500Y-103913329D01*
X92600500Y-103079765D01*
X92620185Y-103012726D01*
X92621398Y-103010874D01*
X92681347Y-102921155D01*
X92709394Y-102879179D01*
X92769737Y-102733497D01*
X92800500Y-102578842D01*
X92800500Y-102421158D01*
X92800500Y-102421155D01*
X92800499Y-102421153D01*
X92774531Y-102290606D01*
X92769737Y-102266503D01*
X92756062Y-102233489D01*
X92709397Y-102120827D01*
X92709390Y-102120814D01*
X92621789Y-101989711D01*
X92621786Y-101989707D01*
X92510292Y-101878213D01*
X92510288Y-101878210D01*
X92379185Y-101790609D01*
X92379172Y-101790602D01*
X92233501Y-101730264D01*
X92233489Y-101730261D01*
X92078845Y-101699500D01*
X92078842Y-101699500D01*
X91921158Y-101699500D01*
X91921155Y-101699500D01*
X91766510Y-101730261D01*
X91766498Y-101730264D01*
X91620827Y-101790602D01*
X91620814Y-101790609D01*
X91489711Y-101878210D01*
X91489707Y-101878213D01*
X91378213Y-101989707D01*
X91378210Y-101989711D01*
X91290609Y-102120814D01*
X91290602Y-102120827D01*
X91230264Y-102266498D01*
X91230261Y-102266510D01*
X91199500Y-102421153D01*
X91199500Y-102578846D01*
X91230261Y-102733489D01*
X91230264Y-102733501D01*
X91290602Y-102879172D01*
X91290609Y-102879185D01*
X91378602Y-103010874D01*
X91399480Y-103077551D01*
X91399500Y-103079765D01*
X91399500Y-103699902D01*
X91379815Y-103766941D01*
X91363181Y-103787583D01*
X90985339Y-104165425D01*
X90924016Y-104198910D01*
X90921850Y-104199361D01*
X90766508Y-104230261D01*
X90766498Y-104230264D01*
X90620827Y-104290602D01*
X90620814Y-104290609D01*
X90489711Y-104378210D01*
X90489707Y-104378213D01*
X90378213Y-104489707D01*
X90378210Y-104489711D01*
X90290609Y-104620814D01*
X90290602Y-104620827D01*
X90230264Y-104766498D01*
X90230261Y-104766510D01*
X90199500Y-104921153D01*
X89681348Y-104921153D01*
X89709394Y-104879179D01*
X89769737Y-104733497D01*
X89800500Y-104578842D01*
X89800500Y-104421158D01*
X89800500Y-104421155D01*
X89800499Y-104421153D01*
X89790069Y-104368717D01*
X89769737Y-104266503D01*
X89755359Y-104231790D01*
X89709397Y-104120827D01*
X89709390Y-104120814D01*
X89621789Y-103989711D01*
X89621786Y-103989707D01*
X89510292Y-103878213D01*
X89510288Y-103878210D01*
X89379185Y-103790609D01*
X89379172Y-103790602D01*
X89233501Y-103730264D01*
X89233489Y-103730261D01*
X89078845Y-103699500D01*
X89078842Y-103699500D01*
X88921158Y-103699500D01*
X88921155Y-103699500D01*
X88766510Y-103730261D01*
X88766498Y-103730264D01*
X88620827Y-103790602D01*
X88620814Y-103790609D01*
X88489711Y-103878210D01*
X88489707Y-103878213D01*
X88378213Y-103989707D01*
X88353102Y-104027289D01*
X88299489Y-104072093D01*
X88230164Y-104080800D01*
X88167137Y-104050645D01*
X88146898Y-104027289D01*
X88121786Y-103989707D01*
X88010292Y-103878213D01*
X88010288Y-103878210D01*
X87879185Y-103790609D01*
X87879172Y-103790602D01*
X87733501Y-103730264D01*
X87733491Y-103730261D01*
X87578149Y-103699361D01*
X87516238Y-103666976D01*
X87514660Y-103665425D01*
X86783740Y-102934505D01*
X86750255Y-102873182D01*
X86755239Y-102803490D01*
X86797111Y-102747557D01*
X86823969Y-102732263D01*
X86879172Y-102709397D01*
X86879172Y-102709396D01*
X86879179Y-102709394D01*
X87010289Y-102621789D01*
X87121789Y-102510289D01*
X87135539Y-102489711D01*
X87146898Y-102472712D01*
X87200510Y-102427906D01*
X87269835Y-102419199D01*
X87332862Y-102449353D01*
X87353102Y-102472712D01*
X87378207Y-102510284D01*
X87378213Y-102510292D01*
X87489707Y-102621786D01*
X87489711Y-102621789D01*
X87620814Y-102709390D01*
X87620827Y-102709397D01*
X87712955Y-102747557D01*
X87766503Y-102769737D01*
X87921153Y-102800499D01*
X87921156Y-102800500D01*
X87921158Y-102800500D01*
X88078844Y-102800500D01*
X88078845Y-102800499D01*
X88233497Y-102769737D01*
X88379179Y-102709394D01*
X88510289Y-102621789D01*
X88621789Y-102510289D01*
X88709394Y-102379179D01*
X88769737Y-102233497D01*
X88800500Y-102078842D01*
X88800638Y-102078150D01*
X88833023Y-102016239D01*
X88834520Y-102014714D01*
X89858506Y-100990727D01*
X89858511Y-100990724D01*
X89868714Y-100980520D01*
X89868716Y-100980520D01*
X89980520Y-100868716D01*
X90059577Y-100731784D01*
X90094754Y-100600501D01*
X90100500Y-100579058D01*
X90100500Y-100420943D01*
X90100500Y-99579765D01*
X90120185Y-99512726D01*
X90121398Y-99510874D01*
X90209390Y-99379185D01*
X90209390Y-99379184D01*
X90209394Y-99379179D01*
X90269737Y-99233497D01*
X90300500Y-99078842D01*
X90300500Y-98921158D01*
X90300500Y-98921155D01*
X90300499Y-98921153D01*
X90288829Y-98862483D01*
X90269737Y-98766503D01*
X90269735Y-98766498D01*
X90209397Y-98620827D01*
X90209390Y-98620814D01*
X90121789Y-98489711D01*
X90121786Y-98489707D01*
X90010292Y-98378213D01*
X90010288Y-98378210D01*
X89879185Y-98290609D01*
X89879172Y-98290602D01*
X89733501Y-98230264D01*
X89733489Y-98230261D01*
X89578845Y-98199500D01*
X89578842Y-98199500D01*
X89421158Y-98199500D01*
X89421155Y-98199500D01*
X89266510Y-98230261D01*
X89266498Y-98230264D01*
X89120827Y-98290602D01*
X89120814Y-98290609D01*
X88989711Y-98378210D01*
X88989707Y-98378213D01*
X88878213Y-98489707D01*
X88878210Y-98489711D01*
X88790609Y-98620814D01*
X88790603Y-98620826D01*
X88783319Y-98638411D01*
X88739477Y-98692814D01*
X88673182Y-98714877D01*
X88644568Y-98712573D01*
X88578846Y-98699500D01*
X88578842Y-98699500D01*
X88421158Y-98699500D01*
X88421155Y-98699500D01*
X88266510Y-98730261D01*
X88266498Y-98730264D01*
X88120827Y-98790602D01*
X88120814Y-98790609D01*
X87989711Y-98878210D01*
X87989707Y-98878213D01*
X87878213Y-98989707D01*
X87878210Y-98989711D01*
X87790609Y-99120814D01*
X87790602Y-99120827D01*
X87730264Y-99266498D01*
X87730261Y-99266510D01*
X87699500Y-99421153D01*
X87699500Y-99578846D01*
X87730261Y-99733489D01*
X87730264Y-99733501D01*
X87790602Y-99879172D01*
X87790609Y-99879185D01*
X87878210Y-100010288D01*
X87878213Y-100010292D01*
X87989707Y-100121786D01*
X87989711Y-100121789D01*
X88120814Y-100209390D01*
X88120827Y-100209397D01*
X88266498Y-100269735D01*
X88266503Y-100269737D01*
X88419132Y-100300097D01*
X88421153Y-100300499D01*
X88421156Y-100300500D01*
X88550903Y-100300500D01*
X88617942Y-100320185D01*
X88663697Y-100372989D01*
X88673641Y-100442147D01*
X88644616Y-100505703D01*
X88638584Y-100512181D01*
X87985339Y-101165425D01*
X87924016Y-101198910D01*
X87921850Y-101199361D01*
X87766508Y-101230261D01*
X87766498Y-101230264D01*
X87620827Y-101290602D01*
X87620814Y-101290609D01*
X87489711Y-101378210D01*
X87489707Y-101378213D01*
X87378213Y-101489707D01*
X87353102Y-101527289D01*
X87327922Y-101548330D01*
X87303517Y-101570254D01*
X87301249Y-101570621D01*
X87299489Y-101572093D01*
X87266938Y-101576181D01*
X87234547Y-101581430D01*
X87232442Y-101580513D01*
X87230164Y-101580800D01*
X87200570Y-101566641D01*
X87170483Y-101553545D01*
X87168436Y-101551266D01*
X87167137Y-101550645D01*
X87146898Y-101527288D01*
X87121398Y-101489125D01*
X87100520Y-101422448D01*
X87100500Y-101420234D01*
X87100500Y-99420943D01*
X87094754Y-99399500D01*
X87079428Y-99342302D01*
X87059577Y-99268216D01*
X87058585Y-99266498D01*
X86980524Y-99131290D01*
X86980521Y-99131286D01*
X86980520Y-99131284D01*
X86868716Y-99019480D01*
X86868715Y-99019479D01*
X86864385Y-99015149D01*
X86864374Y-99015139D01*
X85834574Y-97985339D01*
X85801089Y-97924016D01*
X85800638Y-97921849D01*
X85774531Y-97790606D01*
X85769737Y-97766503D01*
X85769735Y-97766498D01*
X85709397Y-97620827D01*
X85709390Y-97620814D01*
X85621789Y-97489711D01*
X85621786Y-97489707D01*
X85510292Y-97378213D01*
X85510288Y-97378210D01*
X85379185Y-97290609D01*
X85379172Y-97290602D01*
X85233501Y-97230264D01*
X85233489Y-97230261D01*
X85078845Y-97199500D01*
X85078842Y-97199500D01*
X84921158Y-97199500D01*
X84921155Y-97199500D01*
X84766510Y-97230261D01*
X84766498Y-97230264D01*
X84620827Y-97290602D01*
X84620814Y-97290609D01*
X84489711Y-97378210D01*
X84489707Y-97378213D01*
X84378213Y-97489707D01*
X84378210Y-97489711D01*
X84290609Y-97620814D01*
X84290602Y-97620827D01*
X84230264Y-97766498D01*
X84230261Y-97766510D01*
X84199500Y-97921153D01*
X84199500Y-98078846D01*
X84230261Y-98233489D01*
X84230264Y-98233501D01*
X84290602Y-98379172D01*
X84290609Y-98379185D01*
X84378210Y-98510288D01*
X84378213Y-98510292D01*
X84489707Y-98621786D01*
X84489711Y-98621789D01*
X84620814Y-98709390D01*
X84620827Y-98709397D01*
X84758683Y-98766498D01*
X84766503Y-98769737D01*
X84793423Y-98775091D01*
X84815624Y-98779508D01*
X84877535Y-98811892D01*
X84912109Y-98872608D01*
X84908370Y-98942377D01*
X84881706Y-98984697D01*
X84882076Y-98985001D01*
X84879661Y-98987942D01*
X84879123Y-98988798D01*
X84878212Y-98989708D01*
X84878210Y-98989711D01*
X84790609Y-99120814D01*
X84790602Y-99120827D01*
X84730264Y-99266498D01*
X84730261Y-99266508D01*
X84699362Y-99421847D01*
X84690597Y-99438602D01*
X84686578Y-99457081D01*
X84667834Y-99482118D01*
X84666977Y-99483758D01*
X84665427Y-99485335D01*
X84624224Y-99526538D01*
X84624212Y-99526552D01*
X84519478Y-99631286D01*
X84474385Y-99709392D01*
X84474384Y-99709393D01*
X84440423Y-99768214D01*
X84440423Y-99768215D01*
X84399499Y-99920943D01*
X84399499Y-99920945D01*
X84399499Y-100089046D01*
X84399500Y-100089059D01*
X84399500Y-101250903D01*
X84379815Y-101317942D01*
X84327011Y-101363697D01*
X84257853Y-101373641D01*
X84194297Y-101344616D01*
X84187819Y-101338584D01*
X83136819Y-100287584D01*
X83103334Y-100226261D01*
X83100500Y-100199903D01*
X83100500Y-98897955D01*
X83120185Y-98830916D01*
X83172989Y-98785161D01*
X83200303Y-98776339D01*
X83233497Y-98769737D01*
X83379179Y-98709394D01*
X83510289Y-98621789D01*
X83621789Y-98510289D01*
X83709394Y-98379179D01*
X83769737Y-98233497D01*
X83800500Y-98078842D01*
X83800500Y-97921158D01*
X83800500Y-97921155D01*
X83800499Y-97921153D01*
X83774531Y-97790606D01*
X83769737Y-97766503D01*
X83769735Y-97766498D01*
X83709397Y-97620827D01*
X83709390Y-97620814D01*
X83621789Y-97489711D01*
X83621786Y-97489707D01*
X83510292Y-97378213D01*
X83510288Y-97378210D01*
X83379185Y-97290609D01*
X83379172Y-97290602D01*
X83233501Y-97230264D01*
X83233489Y-97230261D01*
X83078845Y-97199500D01*
X83078842Y-97199500D01*
X82921158Y-97199500D01*
X82921155Y-97199500D01*
X82766510Y-97230261D01*
X82766498Y-97230264D01*
X82620827Y-97290602D01*
X82620814Y-97290609D01*
X82489711Y-97378210D01*
X82489707Y-97378213D01*
X82378213Y-97489707D01*
X82378210Y-97489711D01*
X82290609Y-97620814D01*
X82290602Y-97620827D01*
X82230264Y-97766498D01*
X82230261Y-97766508D01*
X82199362Y-97921847D01*
X82190597Y-97938602D01*
X82186578Y-97957081D01*
X82167834Y-97982118D01*
X82166977Y-97983758D01*
X82165427Y-97985335D01*
X82124224Y-98026538D01*
X82124212Y-98026552D01*
X82019478Y-98131285D01*
X81989116Y-98183875D01*
X81980096Y-98199500D01*
X81940423Y-98268215D01*
X81899499Y-98420943D01*
X81899499Y-98579057D01*
X81899499Y-98579059D01*
X81899500Y-98589053D01*
X81899500Y-100413330D01*
X81899499Y-100413348D01*
X81899499Y-100579054D01*
X81899498Y-100579054D01*
X78500500Y-100579054D01*
X78500500Y-95921153D01*
X88699500Y-95921153D01*
X88699500Y-96078846D01*
X88730261Y-96233489D01*
X88730264Y-96233501D01*
X88790602Y-96379172D01*
X88790609Y-96379185D01*
X88878210Y-96510288D01*
X88878213Y-96510292D01*
X88989707Y-96621786D01*
X88989711Y-96621789D01*
X89120814Y-96709390D01*
X89120827Y-96709397D01*
X89266498Y-96769735D01*
X89266503Y-96769737D01*
X89421153Y-96800499D01*
X89421156Y-96800500D01*
X89421158Y-96800500D01*
X89578844Y-96800500D01*
X89578845Y-96800499D01*
X89733497Y-96769737D01*
X89879179Y-96709394D01*
X90010289Y-96621789D01*
X90121789Y-96510289D01*
X90209394Y-96379179D01*
X90269737Y-96233497D01*
X90300500Y-96078842D01*
X90300500Y-95921158D01*
X90300500Y-95921155D01*
X90300499Y-95921153D01*
X97199500Y-95921153D01*
X97199500Y-96078846D01*
X97230261Y-96233489D01*
X97230264Y-96233501D01*
X97290602Y-96379172D01*
X97290609Y-96379185D01*
X97378210Y-96510288D01*
X97378213Y-96510292D01*
X97489707Y-96621786D01*
X97489711Y-96621789D01*
X97620814Y-96709390D01*
X97620827Y-96709397D01*
X97766498Y-96769735D01*
X97766503Y-96769737D01*
X97921153Y-96800499D01*
X97921156Y-96800500D01*
X97921158Y-96800500D01*
X98078844Y-96800500D01*
X98078845Y-96800499D01*
X98233497Y-96769737D01*
X98379179Y-96709394D01*
X98510289Y-96621789D01*
X98621789Y-96510289D01*
X98709394Y-96379179D01*
X98769737Y-96233497D01*
X98800500Y-96078842D01*
X98800500Y-95921158D01*
X98800500Y-95921155D01*
X98800499Y-95921153D01*
X98769738Y-95766510D01*
X98769737Y-95766503D01*
X98769735Y-95766498D01*
X98709397Y-95620827D01*
X98709390Y-95620814D01*
X98621789Y-95489711D01*
X98621786Y-95489707D01*
X98510292Y-95378213D01*
X98510288Y-95378210D01*
X98379185Y-95290609D01*
X98379172Y-95290602D01*
X98233501Y-95230264D01*
X98233489Y-95230261D01*
X98078845Y-95199500D01*
X98078842Y-95199500D01*
X97921158Y-95199500D01*
X97921155Y-95199500D01*
X97766510Y-95230261D01*
X97766498Y-95230264D01*
X97620827Y-95290602D01*
X97620814Y-95290609D01*
X97489711Y-95378210D01*
X97489707Y-95378213D01*
X97378213Y-95489707D01*
X97378210Y-95489711D01*
X97290609Y-95620814D01*
X97290602Y-95620827D01*
X97230264Y-95766498D01*
X97230261Y-95766510D01*
X97199500Y-95921153D01*
X90300499Y-95921153D01*
X90269738Y-95766510D01*
X90269737Y-95766503D01*
X90269735Y-95766498D01*
X90209397Y-95620827D01*
X90209390Y-95620814D01*
X90121789Y-95489711D01*
X90121786Y-95489707D01*
X90010292Y-95378213D01*
X90010288Y-95378210D01*
X89879185Y-95290609D01*
X89879172Y-95290602D01*
X89733501Y-95230264D01*
X89733489Y-95230261D01*
X89578845Y-95199500D01*
X89578842Y-95199500D01*
X89421158Y-95199500D01*
X89421155Y-95199500D01*
X89266510Y-95230261D01*
X89266498Y-95230264D01*
X89120827Y-95290602D01*
X89120814Y-95290609D01*
X88989711Y-95378210D01*
X88989707Y-95378213D01*
X88878213Y-95489707D01*
X88878210Y-95489711D01*
X88790609Y-95620814D01*
X88790602Y-95620827D01*
X88730264Y-95766498D01*
X88730261Y-95766510D01*
X88699500Y-95921153D01*
X78500500Y-95921153D01*
X78500500Y-92921153D01*
X100699500Y-92921153D01*
X100699500Y-93078846D01*
X100730261Y-93233489D01*
X100730264Y-93233501D01*
X100790602Y-93379172D01*
X100790609Y-93379185D01*
X100878210Y-93510288D01*
X100878213Y-93510292D01*
X100989707Y-93621786D01*
X100989711Y-93621789D01*
X101120814Y-93709390D01*
X101120827Y-93709397D01*
X101266498Y-93769735D01*
X101266503Y-93769737D01*
X101421153Y-93800499D01*
X101421156Y-93800500D01*
X101421158Y-93800500D01*
X101578844Y-93800500D01*
X101578845Y-93800499D01*
X101733497Y-93769737D01*
X101879179Y-93709394D01*
X102010289Y-93621789D01*
X102121789Y-93510289D01*
X102209394Y-93379179D01*
X102269737Y-93233497D01*
X102300500Y-93078842D01*
X102300500Y-92921158D01*
X102300500Y-92921155D01*
X102300499Y-92921153D01*
X102269738Y-92766510D01*
X102269737Y-92766503D01*
X102269735Y-92766498D01*
X102209397Y-92620827D01*
X102209390Y-92620814D01*
X102121789Y-92489711D01*
X102121786Y-92489707D01*
X102010292Y-92378213D01*
X102010288Y-92378210D01*
X101879185Y-92290609D01*
X101879172Y-92290602D01*
X101733501Y-92230264D01*
X101733489Y-92230261D01*
X101578845Y-92199500D01*
X101578842Y-92199500D01*
X101421158Y-92199500D01*
X101421155Y-92199500D01*
X101266510Y-92230261D01*
X101266498Y-92230264D01*
X101120827Y-92290602D01*
X101120814Y-92290609D01*
X100989711Y-92378210D01*
X100989707Y-92378213D01*
X100878213Y-92489707D01*
X100878210Y-92489711D01*
X100790609Y-92620814D01*
X100790602Y-92620827D01*
X100730264Y-92766498D01*
X100730261Y-92766510D01*
X100699500Y-92921153D01*
X78500500Y-92921153D01*
X78500500Y-87148543D01*
X87789499Y-87148543D01*
X87827947Y-87341829D01*
X87827950Y-87341839D01*
X87903364Y-87523907D01*
X87903371Y-87523920D01*
X88012860Y-87687781D01*
X88012863Y-87687785D01*
X88152214Y-87827136D01*
X88152218Y-87827139D01*
X88316079Y-87936628D01*
X88316092Y-87936635D01*
X88498160Y-88012049D01*
X88498165Y-88012051D01*
X88498169Y-88012051D01*
X88498170Y-88012052D01*
X88691456Y-88050500D01*
X88691459Y-88050500D01*
X88888543Y-88050500D01*
X89018582Y-88024632D01*
X89081835Y-88012051D01*
X89263914Y-87936632D01*
X89427782Y-87827139D01*
X89567139Y-87687782D01*
X89676632Y-87523914D01*
X89752051Y-87341835D01*
X89790500Y-87148541D01*
X89790500Y-86631333D01*
X89810185Y-86564294D01*
X89862989Y-86518539D01*
X89932147Y-86508595D01*
X89976501Y-86523947D01*
X89997859Y-86536278D01*
X89997860Y-86536278D01*
X89997865Y-86536281D01*
X90144234Y-86575500D01*
X90144236Y-86575500D01*
X90295764Y-86575500D01*
X90295766Y-86575500D01*
X90442135Y-86536281D01*
X90573365Y-86460515D01*
X90680515Y-86353365D01*
X90756281Y-86222135D01*
X90795500Y-86075766D01*
X90795500Y-85924234D01*
X95424500Y-85924234D01*
X95424500Y-86075765D01*
X95463719Y-86222136D01*
X95501602Y-86287750D01*
X95539485Y-86353365D01*
X95646635Y-86460515D01*
X95729912Y-86508595D01*
X95777861Y-86536279D01*
X95777865Y-86536281D01*
X95924234Y-86575500D01*
X95924236Y-86575500D01*
X96075764Y-86575500D01*
X96075766Y-86575500D01*
X96222135Y-86536281D01*
X96232451Y-86530325D01*
X96243499Y-86523947D01*
X96311398Y-86507473D01*
X96377426Y-86530325D01*
X96420617Y-86585245D01*
X96429500Y-86631333D01*
X96429500Y-87148541D01*
X96429500Y-87148543D01*
X96429499Y-87148543D01*
X96467947Y-87341829D01*
X96467950Y-87341839D01*
X96543364Y-87523907D01*
X96543371Y-87523920D01*
X96652860Y-87687781D01*
X96652863Y-87687785D01*
X96792214Y-87827136D01*
X96792218Y-87827139D01*
X96956079Y-87936628D01*
X96956092Y-87936635D01*
X97138160Y-88012049D01*
X97138165Y-88012051D01*
X97138169Y-88012051D01*
X97138170Y-88012052D01*
X97331456Y-88050500D01*
X97331459Y-88050500D01*
X97528543Y-88050500D01*
X97658582Y-88024632D01*
X97721835Y-88012051D01*
X97903914Y-87936632D01*
X98067782Y-87827139D01*
X98207139Y-87687782D01*
X98316632Y-87523914D01*
X98392051Y-87341835D01*
X98430500Y-87148541D01*
X98430500Y-85851459D01*
X98430500Y-85851456D01*
X98392052Y-85658170D01*
X98392051Y-85658169D01*
X98392051Y-85658165D01*
X98387274Y-85646632D01*
X98316635Y-85476092D01*
X98316628Y-85476079D01*
X98207139Y-85312218D01*
X98207136Y-85312214D01*
X98067785Y-85172863D01*
X98067781Y-85172860D01*
X97903920Y-85063371D01*
X97903907Y-85063364D01*
X97721839Y-84987950D01*
X97721829Y-84987947D01*
X97528543Y-84949500D01*
X97528541Y-84949500D01*
X97331459Y-84949500D01*
X97331457Y-84949500D01*
X97138170Y-84987947D01*
X97138160Y-84987950D01*
X96956092Y-85063364D01*
X96956079Y-85063371D01*
X96792218Y-85172860D01*
X96792214Y-85172863D01*
X96652863Y-85312214D01*
X96652860Y-85312218D01*
X96543371Y-85476079D01*
X96543363Y-85476094D01*
X96539456Y-85485528D01*
X96495615Y-85539931D01*
X96429320Y-85561995D01*
X96361621Y-85544715D01*
X96356968Y-85541566D01*
X96353366Y-85539486D01*
X96353365Y-85539485D01*
X96259899Y-85485522D01*
X96222136Y-85463719D01*
X96148950Y-85444109D01*
X96075766Y-85424500D01*
X95924234Y-85424500D01*
X95777863Y-85463719D01*
X95646635Y-85539485D01*
X95646632Y-85539487D01*
X95539487Y-85646632D01*
X95539485Y-85646635D01*
X95463719Y-85777863D01*
X95424500Y-85924234D01*
X90795500Y-85924234D01*
X90756281Y-85777865D01*
X90680515Y-85646635D01*
X90573365Y-85539485D01*
X90502838Y-85498766D01*
X90442136Y-85463719D01*
X90368950Y-85444109D01*
X90295766Y-85424500D01*
X90144234Y-85424500D01*
X89997863Y-85463719D01*
X89906428Y-85516510D01*
X89866635Y-85539485D01*
X89866633Y-85539486D01*
X89859597Y-85543549D01*
X89858254Y-85541224D01*
X89805391Y-85561647D01*
X89736949Y-85547592D01*
X89686971Y-85498766D01*
X89680540Y-85485522D01*
X89676632Y-85476087D01*
X89676628Y-85476079D01*
X89567139Y-85312218D01*
X89567136Y-85312214D01*
X89427785Y-85172863D01*
X89427781Y-85172860D01*
X89263920Y-85063371D01*
X89263907Y-85063364D01*
X89081839Y-84987950D01*
X89081829Y-84987947D01*
X88888543Y-84949500D01*
X88888541Y-84949500D01*
X88691459Y-84949500D01*
X88691457Y-84949500D01*
X88498170Y-84987947D01*
X88498160Y-84987950D01*
X88316092Y-85063364D01*
X88316079Y-85063371D01*
X88152218Y-85172860D01*
X88152214Y-85172863D01*
X88012863Y-85312214D01*
X88012860Y-85312218D01*
X87903371Y-85476079D01*
X87903364Y-85476092D01*
X87827950Y-85658160D01*
X87827947Y-85658170D01*
X87789500Y-85851456D01*
X87789500Y-85851459D01*
X87789500Y-87148541D01*
X87789500Y-87148543D01*
X87789499Y-87148543D01*
X78500500Y-87148543D01*
X78500500Y-82818543D01*
X87789499Y-82818543D01*
X87827947Y-83011829D01*
X87827950Y-83011839D01*
X87903364Y-83193907D01*
X87903371Y-83193920D01*
X88012860Y-83357781D01*
X88012863Y-83357785D01*
X88152214Y-83497136D01*
X88152218Y-83497139D01*
X88316079Y-83606628D01*
X88316092Y-83606635D01*
X88498160Y-83682049D01*
X88498165Y-83682051D01*
X88498169Y-83682051D01*
X88498170Y-83682052D01*
X88691456Y-83720500D01*
X88691459Y-83720500D01*
X88888543Y-83720500D01*
X89018582Y-83694632D01*
X89081835Y-83682051D01*
X89263914Y-83606632D01*
X89427782Y-83497139D01*
X89567139Y-83357782D01*
X89676632Y-83193914D01*
X89752051Y-83011835D01*
X89790500Y-82818543D01*
X96429499Y-82818543D01*
X96467947Y-83011829D01*
X96467950Y-83011839D01*
X96543364Y-83193907D01*
X96543371Y-83193920D01*
X96652860Y-83357781D01*
X96652863Y-83357785D01*
X96792214Y-83497136D01*
X96792218Y-83497139D01*
X96956079Y-83606628D01*
X96956092Y-83606635D01*
X97138160Y-83682049D01*
X97138165Y-83682051D01*
X97138169Y-83682051D01*
X97138170Y-83682052D01*
X97331456Y-83720500D01*
X97331459Y-83720500D01*
X97528543Y-83720500D01*
X97658582Y-83694632D01*
X97721835Y-83682051D01*
X97903914Y-83606632D01*
X98067782Y-83497139D01*
X98207139Y-83357782D01*
X98316632Y-83193914D01*
X98392051Y-83011835D01*
X98430500Y-82818541D01*
X98430500Y-81821459D01*
X98430500Y-81821456D01*
X98392052Y-81628170D01*
X98392051Y-81628169D01*
X98392051Y-81628165D01*
X98374674Y-81586212D01*
X98316635Y-81446092D01*
X98316628Y-81446079D01*
X98207139Y-81282218D01*
X98207136Y-81282214D01*
X98067785Y-81142863D01*
X98067781Y-81142860D01*
X97903920Y-81033371D01*
X97903907Y-81033364D01*
X97721839Y-80957950D01*
X97721829Y-80957947D01*
X97528543Y-80919500D01*
X97528541Y-80919500D01*
X97331459Y-80919500D01*
X97331457Y-80919500D01*
X97138170Y-80957947D01*
X97138160Y-80957950D01*
X96956092Y-81033364D01*
X96956079Y-81033371D01*
X96792218Y-81142860D01*
X96792214Y-81142863D01*
X96652863Y-81282214D01*
X96652860Y-81282218D01*
X96543371Y-81446079D01*
X96543364Y-81446092D01*
X96467950Y-81628160D01*
X96467947Y-81628170D01*
X96429500Y-81821456D01*
X96429500Y-81821459D01*
X96429500Y-82818541D01*
X96429500Y-82818543D01*
X96429499Y-82818543D01*
X89790500Y-82818543D01*
X89790500Y-82818541D01*
X89790500Y-81821459D01*
X89790500Y-81821456D01*
X89752052Y-81628170D01*
X89752051Y-81628169D01*
X89752051Y-81628165D01*
X89734674Y-81586212D01*
X89676635Y-81446092D01*
X89676628Y-81446079D01*
X89567139Y-81282218D01*
X89567136Y-81282214D01*
X89427785Y-81142863D01*
X89427781Y-81142860D01*
X89263920Y-81033371D01*
X89263907Y-81033364D01*
X89081839Y-80957950D01*
X89081829Y-80957947D01*
X88888543Y-80919500D01*
X88888541Y-80919500D01*
X88691459Y-80919500D01*
X88691457Y-80919500D01*
X88498170Y-80957947D01*
X88498160Y-80957950D01*
X88316092Y-81033364D01*
X88316079Y-81033371D01*
X88152218Y-81142860D01*
X88152214Y-81142863D01*
X88012863Y-81282214D01*
X88012860Y-81282218D01*
X87903371Y-81446079D01*
X87903364Y-81446092D01*
X87827950Y-81628160D01*
X87827947Y-81628170D01*
X87789500Y-81821456D01*
X87789500Y-81821459D01*
X87789500Y-82818541D01*
X87789500Y-82818543D01*
X87789499Y-82818543D01*
X78500500Y-82818543D01*
X78500500Y-82004427D01*
X78500816Y-81995581D01*
X78514338Y-81806521D01*
X78514338Y-81806520D01*
X78515130Y-81795446D01*
X78517646Y-81777938D01*
X78559356Y-81586199D01*
X78564333Y-81569248D01*
X78632911Y-81385385D01*
X78640259Y-81369298D01*
X78702815Y-81254734D01*
X78734291Y-81197089D01*
X78743845Y-81182221D01*
X78861448Y-81025123D01*
X78873020Y-81011769D01*
X79011769Y-80873020D01*
X79025123Y-80861448D01*
X79182221Y-80743845D01*
X79197089Y-80734291D01*
X79369298Y-80640258D01*
X79385385Y-80632911D01*
X79569248Y-80564333D01*
X79586199Y-80559356D01*
X79777938Y-80517646D01*
X79795436Y-80515130D01*
X79995582Y-80500816D01*
X80004428Y-80500500D01*
X80065892Y-80500500D01*
X105934108Y-80500500D01*
X105995572Y-80500500D01*
X106004418Y-80500816D01*
G37*
%TD.AperFunction*%
%TD*%
M02*
