%TF.GenerationSoftware,KiCad,Pcbnew,9.0.5*%
%TF.CreationDate,2025-12-02T20:32:22-06:00*%
%TF.ProjectId,lorapuck,6c6f7261-7075-4636-9b2e-6b696361645f,rev?*%
%TF.SameCoordinates,Original*%
%TF.FileFunction,Soldermask,Top*%
%TF.FilePolarity,Negative*%
%FSLAX46Y46*%
G04 Gerber Fmt 4.6, Leading zero omitted, Abs format (unit mm)*
G04 Created by KiCad (PCBNEW 9.0.5) date 2025-12-02 20:32:22*
%MOMM*%
%LPD*%
G01*
G04 APERTURE LIST*
G04 Aperture macros list*
%AMRoundRect*
0 Rectangle with rounded corners*
0 $1 Rounding radius*
0 $2 $3 $4 $5 $6 $7 $8 $9 X,Y pos of 4 corners*
0 Add a 4 corners polygon primitive as box body*
4,1,4,$2,$3,$4,$5,$6,$7,$8,$9,$2,$3,0*
0 Add four circle primitives for the rounded corners*
1,1,$1+$1,$2,$3*
1,1,$1+$1,$4,$5*
1,1,$1+$1,$6,$7*
1,1,$1+$1,$8,$9*
0 Add four rect primitives between the rounded corners*
20,1,$1+$1,$2,$3,$4,$5,0*
20,1,$1+$1,$4,$5,$6,$7,0*
20,1,$1+$1,$6,$7,$8,$9,0*
20,1,$1+$1,$8,$9,$2,$3,0*%
G04 Aperture macros list end*
%ADD10R,1.700000X1.700000*%
%ADD11RoundRect,0.135000X0.135000X0.185000X-0.135000X0.185000X-0.135000X-0.185000X0.135000X-0.185000X0*%
%ADD12RoundRect,0.140000X-0.170000X0.140000X-0.170000X-0.140000X0.170000X-0.140000X0.170000X0.140000X0*%
%ADD13RoundRect,0.050000X-0.387500X-0.050000X0.387500X-0.050000X0.387500X0.050000X-0.387500X0.050000X0*%
%ADD14RoundRect,0.050000X-0.050000X-0.387500X0.050000X-0.387500X0.050000X0.387500X-0.050000X0.387500X0*%
%ADD15R,3.200000X3.200000*%
%ADD16RoundRect,0.140000X0.140000X0.170000X-0.140000X0.170000X-0.140000X-0.170000X0.140000X-0.170000X0*%
%ADD17R,1.250000X1.000000*%
%ADD18RoundRect,0.140000X-0.140000X-0.170000X0.140000X-0.170000X0.140000X0.170000X-0.140000X0.170000X0*%
%ADD19RoundRect,0.135000X-0.185000X0.135000X-0.185000X-0.135000X0.185000X-0.135000X0.185000X0.135000X0*%
%ADD20RoundRect,0.087500X0.187500X0.087500X-0.187500X0.087500X-0.187500X-0.087500X0.187500X-0.087500X0*%
%ADD21RoundRect,0.175000X0.175000X0.625000X-0.175000X0.625000X-0.175000X-0.625000X0.175000X-0.625000X0*%
%ADD22RoundRect,0.147500X-0.172500X0.147500X-0.172500X-0.147500X0.172500X-0.147500X0.172500X0.147500X0*%
%ADD23RoundRect,0.100000X-0.100000X0.225000X-0.100000X-0.225000X0.100000X-0.225000X0.100000X0.225000X0*%
%ADD24RoundRect,0.250000X-0.350000X0.450000X-0.350000X-0.450000X0.350000X-0.450000X0.350000X0.450000X0*%
%ADD25RoundRect,0.140000X0.170000X-0.140000X0.170000X0.140000X-0.170000X0.140000X-0.170000X-0.140000X0*%
%ADD26RoundRect,0.150000X-0.150000X0.512500X-0.150000X-0.512500X0.150000X-0.512500X0.150000X0.512500X0*%
%ADD27RoundRect,0.250000X0.350000X-0.450000X0.350000X0.450000X-0.350000X0.450000X-0.350000X-0.450000X0*%
%ADD28C,0.650000*%
%ADD29RoundRect,0.150000X0.150000X0.425000X-0.150000X0.425000X-0.150000X-0.425000X0.150000X-0.425000X0*%
%ADD30RoundRect,0.075000X0.075000X0.500000X-0.075000X0.500000X-0.075000X-0.500000X0.075000X-0.500000X0*%
%ADD31O,1.000000X2.100000*%
%ADD32O,1.000000X1.800000*%
%ADD33RoundRect,0.135000X0.185000X-0.135000X0.185000X0.135000X-0.185000X0.135000X-0.185000X-0.135000X0*%
%ADD34R,1.000000X1.250000*%
%ADD35RoundRect,0.147500X0.147500X0.172500X-0.147500X0.172500X-0.147500X-0.172500X0.147500X-0.172500X0*%
%ADD36RoundRect,0.162500X-0.650000X-0.162500X0.650000X-0.162500X0.650000X0.162500X-0.650000X0.162500X0*%
%ADD37RoundRect,0.147500X-0.147500X-0.172500X0.147500X-0.172500X0.147500X0.172500X-0.147500X0.172500X0*%
%ADD38RoundRect,0.062500X0.350000X0.062500X-0.350000X0.062500X-0.350000X-0.062500X0.350000X-0.062500X0*%
%ADD39RoundRect,0.062500X0.062500X0.350000X-0.062500X0.350000X-0.062500X-0.350000X0.062500X-0.350000X0*%
%ADD40R,2.600000X2.600000*%
%ADD41RoundRect,0.135000X-0.135000X-0.185000X0.135000X-0.185000X0.135000X0.185000X-0.135000X0.185000X0*%
%ADD42RoundRect,0.075000X-0.075000X0.225000X-0.075000X-0.225000X0.075000X-0.225000X0.075000X0.225000X0*%
%ADD43RoundRect,0.075000X-0.237500X0.075000X-0.237500X-0.075000X0.237500X-0.075000X0.237500X0.075000X0*%
G04 APERTURE END LIST*
D10*
%TO.C,AE1*%
X100000000Y-118800000D03*
%TD*%
D11*
%TO.C,R1*%
X93010000Y-113500000D03*
X91990000Y-113500000D03*
%TD*%
D12*
%TO.C,C23*%
X83000000Y-113530000D03*
X83000000Y-114490000D03*
%TD*%
D13*
%TO.C,U2*%
X85362500Y-104190000D03*
X85362500Y-104590000D03*
X85362500Y-104990000D03*
X85362500Y-105390000D03*
X85362500Y-105790000D03*
X85362500Y-106190000D03*
X85362500Y-106590000D03*
X85362500Y-106990000D03*
X85362500Y-107390000D03*
X85362500Y-107790000D03*
X85362500Y-108190000D03*
X85362500Y-108590000D03*
X85362500Y-108990000D03*
X85362500Y-109390000D03*
D14*
X86200000Y-110227500D03*
X86600000Y-110227500D03*
X87000000Y-110227500D03*
X87400000Y-110227500D03*
X87800000Y-110227500D03*
X88200000Y-110227500D03*
X88600000Y-110227500D03*
X89000000Y-110227500D03*
X89400000Y-110227500D03*
X89800000Y-110227500D03*
X90200000Y-110227500D03*
X90600000Y-110227500D03*
X91000000Y-110227500D03*
X91400000Y-110227500D03*
D13*
X92237500Y-109390000D03*
X92237500Y-108990000D03*
X92237500Y-108590000D03*
X92237500Y-108190000D03*
X92237500Y-107790000D03*
X92237500Y-107390000D03*
X92237500Y-106990000D03*
X92237500Y-106590000D03*
X92237500Y-106190000D03*
X92237500Y-105790000D03*
X92237500Y-105390000D03*
X92237500Y-104990000D03*
X92237500Y-104590000D03*
X92237500Y-104190000D03*
D14*
X91400000Y-103352500D03*
X91000000Y-103352500D03*
X90600000Y-103352500D03*
X90200000Y-103352500D03*
X89800000Y-103352500D03*
X89400000Y-103352500D03*
X89000000Y-103352500D03*
X88600000Y-103352500D03*
X88200000Y-103352500D03*
X87800000Y-103352500D03*
X87400000Y-103352500D03*
X87000000Y-103352500D03*
X86600000Y-103352500D03*
X86200000Y-103352500D03*
D15*
X88800000Y-106790000D03*
%TD*%
D16*
%TO.C,C6*%
X90460000Y-97490000D03*
X89500000Y-97490000D03*
%TD*%
D12*
%TO.C,C1*%
X84000000Y-103040000D03*
X84000000Y-104000000D03*
%TD*%
D17*
%TO.C,SW1*%
X88375000Y-93000000D03*
X80625000Y-93000000D03*
%TD*%
D18*
%TO.C,C26*%
X80440000Y-111800000D03*
X81400000Y-111800000D03*
%TD*%
D19*
%TO.C,R5*%
X97500000Y-108490000D03*
X97500000Y-109510000D03*
%TD*%
D18*
%TO.C,C24*%
X95520000Y-89000000D03*
X96480000Y-89000000D03*
%TD*%
D12*
%TO.C,C19*%
X99500000Y-111320000D03*
X99500000Y-112280000D03*
%TD*%
D20*
%TO.C,U6*%
X81600000Y-110400000D03*
X81600000Y-109400000D03*
X79750000Y-109400000D03*
X79750000Y-110400000D03*
D21*
X80675000Y-109900000D03*
%TD*%
D16*
%TO.C,C21*%
X100480000Y-116300000D03*
X99520000Y-116300000D03*
%TD*%
D22*
%TO.C,L3*%
X99500000Y-114315000D03*
X99500000Y-115285000D03*
%TD*%
D23*
%TO.C,U4*%
X100150000Y-108300000D03*
X99500000Y-108300000D03*
X98850000Y-108300000D03*
X98850000Y-110200000D03*
X99500000Y-110200000D03*
X100150000Y-110200000D03*
%TD*%
D24*
%TO.C,Y1*%
X104500000Y-98300000D03*
X104500000Y-100500000D03*
X106200000Y-100500000D03*
X106200000Y-98300000D03*
%TD*%
D19*
%TO.C,R8*%
X91110000Y-88885000D03*
X91110000Y-89905000D03*
%TD*%
D25*
%TO.C,C18*%
X96500000Y-109480000D03*
X96500000Y-108520000D03*
%TD*%
D26*
%TO.C,U5*%
X98450000Y-90862500D03*
X97500000Y-90862500D03*
X96550000Y-90862500D03*
X96550000Y-93137500D03*
X98450000Y-93137500D03*
%TD*%
D19*
%TO.C,R7*%
X94610000Y-88885000D03*
X94610000Y-89905000D03*
%TD*%
D18*
%TO.C,C22*%
X85020000Y-117010000D03*
X85980000Y-117010000D03*
%TD*%
D27*
%TO.C,Y2*%
X86350000Y-115100000D03*
X86350000Y-112900000D03*
X84650000Y-112900000D03*
X84650000Y-115100000D03*
%TD*%
D12*
%TO.C,C13*%
X92000000Y-100500000D03*
X92000000Y-101460000D03*
%TD*%
D16*
%TO.C,C9*%
X96980000Y-106500000D03*
X96020000Y-106500000D03*
%TD*%
%TO.C,C15*%
X94480000Y-104500000D03*
X93520000Y-104500000D03*
%TD*%
D28*
%TO.C,J1*%
X96000000Y-86000000D03*
X90220000Y-86000000D03*
D29*
X96310000Y-87075000D03*
X95510000Y-87075000D03*
D30*
X94360000Y-87075000D03*
X93360000Y-87075000D03*
X92860000Y-87075000D03*
X91860000Y-87075000D03*
D29*
X90710000Y-87075000D03*
X89910000Y-87075000D03*
X89910000Y-87075000D03*
X90710000Y-87075000D03*
D30*
X91360000Y-87075000D03*
X92360000Y-87075000D03*
X93860000Y-87075000D03*
X94860000Y-87075000D03*
D29*
X95510000Y-87075000D03*
X96310000Y-87075000D03*
D31*
X97430000Y-86500000D03*
D32*
X97430000Y-82320000D03*
D31*
X88790000Y-86500000D03*
D32*
X88790000Y-82320000D03*
%TD*%
D33*
%TO.C,R6*%
X88000000Y-113510000D03*
X88000000Y-112490000D03*
%TD*%
D12*
%TO.C,C11*%
X89000000Y-100520000D03*
X89000000Y-101480000D03*
%TD*%
%TO.C,C12*%
X94000000Y-100520000D03*
X94000000Y-101480000D03*
%TD*%
%TO.C,C5*%
X103000000Y-101520000D03*
X103000000Y-102480000D03*
%TD*%
D25*
%TO.C,C25*%
X100110000Y-91875000D03*
X100110000Y-90915000D03*
%TD*%
D34*
%TO.C,SW2*%
X90500000Y-121375000D03*
X90500000Y-113625000D03*
%TD*%
D18*
%TO.C,C4*%
X93520000Y-103500000D03*
X94480000Y-103500000D03*
%TD*%
D11*
%TO.C,R9*%
X81600000Y-105400000D03*
X80580000Y-105400000D03*
%TD*%
D33*
%TO.C,R4*%
X80000000Y-95520000D03*
X80000000Y-94500000D03*
%TD*%
D18*
%TO.C,C2*%
X93520000Y-102500000D03*
X94480000Y-102500000D03*
%TD*%
D35*
%TO.C,L1*%
X101985000Y-104300000D03*
X101015000Y-104300000D03*
%TD*%
D25*
%TO.C,C10*%
X89000000Y-113450000D03*
X89000000Y-112490000D03*
%TD*%
D16*
%TO.C,C20*%
X100480000Y-113300000D03*
X99520000Y-113300000D03*
%TD*%
D18*
%TO.C,C7*%
X97540000Y-97300000D03*
X98500000Y-97300000D03*
%TD*%
D36*
%TO.C,U3*%
X79825000Y-97000000D03*
X79825000Y-98270000D03*
X79825000Y-99540000D03*
X79825000Y-100810000D03*
X87000000Y-100810000D03*
X87000000Y-99540000D03*
X87000000Y-98270000D03*
X87000000Y-97000000D03*
%TD*%
D25*
%TO.C,C17*%
X103500000Y-105260000D03*
X103500000Y-104300000D03*
%TD*%
D37*
%TO.C,15uH1*%
X99515000Y-95800000D03*
X100485000Y-95800000D03*
%TD*%
D33*
%TO.C,R3*%
X91000000Y-101510000D03*
X91000000Y-100490000D03*
%TD*%
D38*
%TO.C,U1*%
X101587500Y-101900000D03*
X101587500Y-101400000D03*
X101587500Y-100900000D03*
X101587500Y-100400000D03*
X101587500Y-99900000D03*
X101587500Y-99400000D03*
D39*
X100900000Y-98712500D03*
X100400000Y-98712500D03*
X99900000Y-98712500D03*
X99400000Y-98712500D03*
X98900000Y-98712500D03*
X98400000Y-98712500D03*
D38*
X97712500Y-99400000D03*
X97712500Y-99900000D03*
X97712500Y-100400000D03*
X97712500Y-100900000D03*
X97712500Y-101400000D03*
X97712500Y-101900000D03*
D39*
X98400000Y-102587500D03*
X98900000Y-102587500D03*
X99400000Y-102587500D03*
X99900000Y-102587500D03*
X100400000Y-102587500D03*
X100900000Y-102587500D03*
D40*
X99650000Y-100650000D03*
%TD*%
D16*
%TO.C,C3*%
X100980000Y-97300000D03*
X100020000Y-97300000D03*
%TD*%
D12*
%TO.C,C14*%
X93000000Y-100520000D03*
X93000000Y-101480000D03*
%TD*%
D37*
%TO.C,FB1*%
X88125000Y-88895000D03*
X89095000Y-88895000D03*
%TD*%
D18*
%TO.C,C8*%
X83020000Y-107990000D03*
X83980000Y-107990000D03*
%TD*%
D33*
%TO.C,R2*%
X90000000Y-101510000D03*
X90000000Y-100490000D03*
%TD*%
D41*
%TO.C,R10*%
X80580000Y-106400000D03*
X81600000Y-106400000D03*
%TD*%
D25*
%TO.C,C16*%
X104470000Y-105260000D03*
X104470000Y-104300000D03*
%TD*%
D42*
%TO.C,FL1*%
X100250000Y-105600000D03*
X99750000Y-105600000D03*
X99250000Y-105600000D03*
X98750000Y-105600000D03*
D43*
X98437500Y-106300000D03*
D42*
X98750000Y-107000000D03*
X99250000Y-107000000D03*
X99750000Y-107000000D03*
X100250000Y-107000000D03*
D43*
X100562500Y-106300000D03*
%TD*%
M02*
